<svg width="840" height="78" viewBox="0 0 840 78" fill="none" xmlns="http://www.w3.org/2000/svg">
<g filter="url(#filter0_d_4_18)">
<path d="M65.744 1.584L77.072 1.296C77.648 1.296 77.936 1.84 77.936 2.928C77.936 3.952 77.648 4.464 77.072 4.464H72.56C71.28 4.464 70.448 4.752 70.064 5.328C68.592 7.504 67.792 28.112 67.664 67.152C67.536 67.6 67.024 67.824 66.128 67.824C65.232 67.824 64.56 67.6 64.112 67.152C45.424 44.944 30.704 27.312 19.952 14.256H19.568C19.824 37.552 20.016 51.472 20.144 56.016C20.272 60.56 20.944 62.832 22.16 62.832H27.44C28.016 62.832 28.304 63.376 28.304 64.464C28.304 65.488 28.016 66 27.44 66L17.264 65.904L5.84 66.192C5.392 66.192 5.168 65.648 5.168 64.56C5.168 63.472 5.392 62.928 5.84 62.928H9.008C10.48 62.928 11.536 62.768 12.176 62.448C12.816 62.064 13.168 61.36 13.232 60.336C14.512 45.936 15.152 28.72 15.152 8.688L14.48 7.92C13.2 6.448 12.048 5.52 11.024 5.136C10.064 4.688 8.24 4.464 5.552 4.464C5.168 4.464 4.976 3.952 4.976 2.928C4.976 1.904 5.168 1.392 5.552 1.392L22.928 1.584C45.712 30.128 58.96 46.896 62.672 51.888H63.056C62.672 26.48 62.352 12.24 62.096 9.168C61.84 6.096 61.104 4.56 59.888 4.56H55.28C54.704 4.56 54.416 4.048 54.416 3.024C54.416 1.936 54.704 1.392 55.28 1.392L65.744 1.584ZM85.454 19.632L95.246 19.824H115.118V18.288C115.118 17.904 115.534 17.712 116.366 17.712C117.262 17.712 117.71 17.904 117.71 18.288C117.71 23.344 117.934 26.96 118.382 29.136C118.51 29.52 118.158 29.712 117.326 29.712C116.238 29.712 115.694 29.52 115.694 29.136C114.798 26.192 113.934 24.528 113.102 24.144C110.414 23.184 106.51 22.704 101.39 22.704C100.494 22.768 99.886 23.024 99.566 23.472C99.246 23.92 99.086 24.72 99.086 25.872V41.616C106.83 41.36 111.086 41.008 111.854 40.56L112.526 36.528C112.654 36.208 113.102 36.048 113.87 36.048C114.702 36.048 115.118 36.272 115.118 36.72C114.862 38.576 114.734 40.656 114.734 42.96C114.734 45.2 114.862 47.248 115.118 49.104C115.118 49.488 114.67 49.68 113.774 49.68C112.942 49.68 112.526 49.552 112.526 49.296L111.758 45.168C110.99 44.72 106.766 44.368 99.086 44.112V55.728C99.086 60.528 99.726 62.928 101.006 62.928H104.078C111.118 62.8 115.982 61.808 118.67 59.952L119.15 56.208C119.278 55.824 119.598 55.632 120.11 55.632C120.686 55.632 121.07 55.632 121.262 55.632C121.646 55.76 121.838 55.952 121.838 56.208C121.454 58.896 121.262 62.672 121.262 67.536C121.262 67.856 120.814 68.016 119.918 68.016C119.086 68.016 118.67 67.856 118.67 67.536V66H101.582L85.262 66.192C84.814 66.192 84.59 65.712 84.59 64.752C84.59 63.792 84.782 63.312 85.166 63.312H89.486C90.19 63.312 90.606 63.184 90.734 62.928C90.862 62.608 90.926 61.808 90.926 60.528V30.288C90.926 25.168 90.286 22.608 89.006 22.608H85.55C84.782 22.608 84.398 22.128 84.398 21.168C84.398 20.144 84.75 19.632 85.454 19.632ZM174.906 19.92L187.483 19.632C187.995 19.632 188.251 20.112 188.251 21.072C188.251 21.968 187.995 22.416 187.483 22.416H185.083C183.675 22.416 182.971 23.6 182.971 25.968C182.971 26.992 183.419 32.048 184.315 41.136C185.275 50.224 185.883 56.144 186.139 58.896C186.459 61.648 187.035 63.024 187.867 63.024H192.091C192.667 63.024 192.955 63.536 192.955 64.56C192.955 65.52 192.699 66 192.187 66L182.779 65.904L173.083 66.192C172.635 66.192 172.411 65.712 172.411 64.752C172.411 63.792 172.603 63.312 172.987 63.312H175.963C177.691 63.312 178.491 62.576 178.363 61.104C177.083 43.184 176.379 33.04 176.25 30.672H175.867C169.915 43.216 164.987 54.576 161.083 64.752C160.827 65.328 160.187 65.616 159.163 65.616C158.203 65.616 157.595 65.296 157.339 64.656C155.611 60.176 150.939 48.592 143.323 29.904H143.035C142.075 43.152 141.595 50.992 141.595 53.424C141.595 55.856 141.595 57.168 141.595 57.36C141.595 61.136 142.171 63.024 143.323 63.024H146.299C146.939 63.024 147.259 63.536 147.259 64.56C147.259 65.52 146.939 66 146.299 66L138.619 65.904L129.403 66.192C129.019 66.192 128.827 65.712 128.827 64.752C128.827 63.792 129.051 63.312 129.499 63.312H131.803C133.339 63.312 134.267 63.152 134.587 62.832C134.971 62.448 135.227 61.968 135.355 61.392C135.803 58.768 136.475 53.072 137.371 44.304C138.331 35.536 138.811 30.16 138.811 28.176C138.875 26.128 138.747 24.688 138.427 23.856C138.171 23.024 137.659 22.608 136.891 22.608H134.203C133.819 22.608 133.627 22.128 133.627 21.168C133.627 20.144 133.819 19.632 134.203 19.632L143.419 19.92H147.931C148.507 21.584 152.731 33.168 160.603 54.672H160.987C165.467 45.072 170.107 33.488 174.906 19.92ZM207.297 25.776C212.481 20.976 218.497 18.576 225.345 18.576C232.193 18.576 238.177 20.976 243.297 25.776C248.481 30.576 251.073 36.272 251.073 42.864C251.073 49.392 248.481 55.088 243.297 59.952C238.177 64.816 232.193 67.248 225.345 67.248C218.497 67.248 212.481 64.816 207.297 59.952C202.177 55.088 199.617 49.392 199.617 42.864C199.617 36.272 202.177 30.576 207.297 25.776ZM236.961 28.08C233.953 24.048 230.081 22.032 225.345 22.032C220.609 22.032 216.737 24.048 213.729 28.08C210.721 32.048 209.217 36.976 209.217 42.864C209.217 48.688 210.721 53.648 213.729 57.744C216.737 61.776 220.609 63.792 225.345 63.792C230.081 63.792 233.953 61.776 236.961 57.744C239.969 53.648 241.473 48.688 241.473 42.864C241.473 36.976 239.969 32.048 236.961 28.08ZM271.55 13.872C271.55 11.568 270.014 10.416 266.942 10.416C266.558 10.416 266.142 10.448 265.694 10.512C264.03 9.68 263.198 8.336 263.198 6.48C263.198 4.624 263.71 3.184 264.734 2.16C265.758 1.072 267.198 0.527996 269.054 0.527996C270.974 0.527996 272.574 1.36 273.854 3.024C275.134 4.688 275.774 6.608 275.774 8.784C275.774 12.944 274.654 16.304 272.414 18.864C270.238 21.424 267.134 23.824 263.102 26.064L262.046 24.24C264.734 22.896 266.974 21.232 268.766 19.248C270.622 17.264 271.55 15.472 271.55 13.872ZM315.403 19.44L317.419 30C317.419 30.512 317.035 30.768 316.267 30.768C315.499 30.768 315.019 30.512 314.827 30C313.995 27.632 312.683 25.68 310.891 24.144C309.099 22.608 307.147 21.84 305.035 21.84C302.987 21.776 301.163 22.352 299.563 23.568C298.027 24.784 297.259 26.288 297.259 28.08C297.259 29.808 297.771 31.408 298.795 32.88C299.883 34.288 301.195 35.504 302.731 36.528C304.267 37.552 305.963 38.736 307.819 40.08C309.675 41.36 311.371 42.64 312.907 43.92C314.443 45.2 315.723 46.864 316.747 48.912C317.835 50.96 318.379 53.168 318.379 55.536C318.379 59.248 316.747 62.128 313.483 64.176C310.219 66.224 306.667 67.248 302.827 67.248C299.051 67.248 295.563 66.512 292.363 65.04C292.363 65.808 292.299 66.288 292.171 66.48C292.107 66.672 291.787 66.8 291.211 66.864H290.827C290.315 66.864 290.027 66.608 289.963 66.096C289.835 64.56 289.579 62.448 289.195 59.76C288.811 57.072 288.523 54.896 288.331 53.232C288.331 52.592 288.715 52.272 289.483 52.272C290.315 52.272 290.763 52.432 290.827 52.752C291.723 55.888 293.291 58.608 295.531 60.912C297.771 63.152 300.107 64.272 302.539 64.272C304.971 64.272 306.987 63.696 308.587 62.544C310.187 61.328 310.987 59.664 310.987 57.552C310.987 55.44 310.251 53.52 308.779 51.792C307.371 50 305.643 48.4 303.595 46.992C301.547 45.584 299.499 44.176 297.451 42.768C295.403 41.296 293.643 39.504 292.171 37.392C290.763 35.28 290.059 32.976 290.059 30.48C290.059 26.896 291.563 24.048 294.571 21.936C297.643 19.824 301.259 18.768 305.419 18.768C307.787 18.768 310.315 19.216 313.003 20.112C312.875 19.728 312.811 19.28 312.811 18.768C312.811 18.192 313.099 17.904 313.675 17.904C314.315 17.904 314.731 18 314.923 18.192C315.115 18.32 315.275 18.736 315.403 19.44ZM383.002 19.632L390.586 19.824C391.29 19.824 391.898 19.824 392.41 19.824L402.394 19.632C402.842 19.632 403.066 20.112 403.066 21.072C403.066 21.968 402.81 22.416 402.298 22.416H397.882C397.05 22.416 396.634 22.928 396.634 23.952V55.728C396.634 60.592 397.274 63.024 398.554 63.024H403.354C403.866 63.024 404.122 63.536 404.122 64.56C404.122 65.52 403.93 66 403.546 66L392.41 65.904L382.81 66.192C382.362 66.192 382.138 65.712 382.138 64.752C382.138 63.792 382.33 63.312 382.714 63.312H387.034C387.738 63.312 388.154 63.184 388.282 62.928C388.41 62.608 388.474 61.808 388.474 60.528V44.88H365.242V55.728C365.242 60.592 365.882 63.024 367.162 63.024H371.962C372.474 63.024 372.73 63.536 372.73 64.56C372.73 65.52 372.538 66 372.154 66L361.018 65.904L351.418 66.192C350.97 66.192 350.746 65.712 350.746 64.752C350.746 63.792 350.938 63.312 351.322 63.312H355.642C356.346 63.312 356.762 63.184 356.89 62.928C357.018 62.608 357.082 61.808 357.082 60.528V30.288C357.082 25.168 356.442 22.608 355.162 22.608H351.706C350.938 22.608 350.554 22.128 350.554 21.168C350.554 20.144 350.906 19.632 351.61 19.632L359.194 19.824C359.898 19.824 360.506 19.824 361.018 19.824L371.002 19.632C371.45 19.632 371.674 20.112 371.674 21.072C371.674 21.968 371.418 22.416 370.906 22.416H366.49C365.658 22.416 365.242 22.928 365.242 23.952V41.232H388.474V30.288C388.474 25.168 387.834 22.608 386.554 22.608H383.098C382.33 22.608 381.946 22.128 381.946 21.168C381.946 20.144 382.298 19.632 383.002 19.632ZM450.95 19.824L458.822 19.632C459.27 19.632 459.494 20.112 459.494 21.072C459.494 21.968 459.27 22.416 458.822 22.416H456.806C455.654 22.416 454.918 22.64 454.598 23.088C454.278 23.472 454.054 24.304 453.926 25.584C453.414 36.848 453.158 44.56 453.158 48.72C453.158 54.48 451.302 59.024 447.59 62.352C443.942 65.616 439.622 67.248 434.63 67.248C429.638 67.248 425.254 65.712 421.478 62.64C417.766 59.568 415.91 55.248 415.91 49.68V29.712C415.91 24.976 415.206 22.608 413.798 22.608H410.438C409.926 22.608 409.67 22.128 409.67 21.168C409.67 20.144 409.926 19.632 410.438 19.632L419.75 19.824L429.83 19.632C430.342 19.632 430.598 20.144 430.598 21.168C430.598 22.128 430.342 22.608 429.83 22.608H426.854C425.702 22.608 424.934 22.832 424.55 23.28C424.23 23.728 424.07 24.56 424.07 25.776V47.76C424.07 52.624 425.19 56.208 427.43 58.512C429.734 60.816 432.774 61.968 436.55 61.968C440.326 61.968 443.238 60.688 445.286 58.128C447.398 55.504 448.454 51.568 448.454 46.32C448.454 38.896 448.358 33.104 448.166 28.944C448.038 24.72 447.526 22.608 446.63 22.608H442.79C442.406 22.608 442.214 22.128 442.214 21.168C442.214 20.208 442.406 19.728 442.79 19.728L450.95 19.824ZM507.404 19.824L516.236 19.632C516.62 19.632 516.812 20.112 516.812 21.072C516.812 21.968 516.62 22.416 516.236 22.416H512.876C511.98 22.416 511.404 22.64 511.148 23.088C509.996 25.072 509.42 39.472 509.42 66.288C509.42 66.928 508.876 67.248 507.788 67.248C506.764 67.248 506.028 67.024 505.58 66.576C492.78 51.344 482.476 38.992 474.668 29.52H474.38C474.572 40.848 474.764 50.32 474.956 57.936C474.956 61.264 475.436 62.928 476.396 62.928H480.236C480.62 62.928 480.812 63.44 480.812 64.464C480.812 65.424 480.62 65.904 480.236 65.904H472.268L463.532 66.096C463.212 66.096 463.052 65.648 463.052 64.752C463.052 63.792 463.212 63.312 463.532 63.312H465.836C467.82 63.312 468.844 62.672 468.908 61.392C469.868 51.024 470.348 38.896 470.348 25.008C469.324 23.792 468.46 23.088 467.756 22.896C467.052 22.704 465.74 22.608 463.82 22.608C463.436 22.608 463.244 22.128 463.244 21.168C463.244 20.144 463.436 19.632 463.82 19.632L477.356 19.824C492.908 39.536 502.06 51.216 504.812 54.864H505.004C504.748 38.096 504.524 28.528 504.332 26.16C504.14 23.792 503.628 22.608 502.796 22.608H499.436C498.988 22.608 498.764 22.128 498.764 21.168C498.764 20.144 498.988 19.632 499.436 19.632L507.404 19.824ZM533.159 66L522.887 66.192C522.439 66.192 522.215 65.712 522.215 64.752C522.215 63.792 522.375 63.312 522.695 63.312H527.399C528.167 63.312 528.551 62.768 528.551 61.68V30.192C528.551 25.136 527.847 22.608 526.439 22.608H523.079C522.375 22.608 522.023 22.128 522.023 21.168C522.023 20.144 522.311 19.632 522.887 19.632C526.215 19.76 529.575 19.824 532.967 19.824H542.279C550.599 19.824 557.319 22.096 562.439 26.64C567.623 31.12 570.215 36.72 570.215 43.44C570.215 50.16 567.687 55.6 562.631 59.76C557.639 63.92 551.303 66 543.623 66H533.159ZM539.015 22.704C537.479 22.704 536.711 23.632 536.711 25.488V55.44C536.711 60.432 537.383 62.928 538.727 62.928H542.183C548.071 62.928 552.583 61.264 555.719 57.936C558.919 54.608 560.519 49.968 560.519 44.016C560.519 38 558.791 33.008 555.335 29.04C551.879 25.072 546.535 22.96 539.303 22.704C539.175 22.704 539.079 22.704 539.015 22.704ZM588.847 66L578.575 66.192C578.127 66.192 577.903 65.712 577.903 64.752C577.903 63.792 578.063 63.312 578.383 63.312H583.087C583.855 63.312 584.239 62.768 584.239 61.68V30.192C584.239 25.136 583.535 22.608 582.127 22.608H578.767C578.063 22.608 577.711 22.128 577.711 21.168C577.711 20.144 577.999 19.632 578.575 19.632C584.271 19.76 590.063 19.824 595.951 19.824C601.839 19.824 606.383 20.976 609.583 23.28C612.847 25.584 614.479 28.368 614.479 31.632C614.479 34 613.391 36.144 611.215 38.064C609.103 39.984 606.575 41.232 603.631 41.808V42C607.855 42.768 611.311 44.272 613.999 46.512C616.751 48.688 618.127 51.312 618.127 54.384C618.127 57.392 616.207 60.08 612.367 62.448C608.527 64.816 603.535 66 597.391 66H588.847ZM607.855 53.904C607.855 47.632 602.703 44.208 592.399 43.632V56.688C592.399 60.848 593.039 62.928 594.319 62.928H596.911C600.431 62.928 603.119 62.096 604.975 60.432C606.895 58.768 607.855 56.592 607.855 53.904ZM594.319 22.704C593.039 22.704 592.399 23.76 592.399 25.872V40.176C593.103 40.304 594.159 40.368 595.567 40.368C598.703 40.368 601.135 39.568 602.863 37.968C604.591 36.368 605.455 34.384 605.455 32.016C605.455 29.584 604.559 27.44 602.767 25.584C600.975 23.664 598.159 22.704 594.319 22.704ZM628.079 19.632L635.663 19.824C636.367 19.824 636.975 19.824 637.487 19.824L647.471 19.632C647.919 19.632 648.143 20.112 648.143 21.072C648.143 21.968 647.887 22.416 647.375 22.416H642.959C642.127 22.416 641.711 22.928 641.711 23.952V55.728C641.711 60.528 642.351 62.928 643.631 62.928H646.127C653.167 62.8 658.031 61.808 660.719 59.952L661.199 56.208C661.327 55.824 661.647 55.632 662.159 55.632C662.735 55.632 663.119 55.632 663.311 55.632C663.695 55.76 663.887 55.952 663.887 56.208C663.503 58.896 663.311 62.672 663.311 67.536C663.311 67.856 662.863 68.016 661.967 68.016C661.135 68.016 660.719 67.856 660.719 67.536V66H644.207L627.887 66.192C627.439 66.192 627.215 65.712 627.215 64.752C627.215 63.792 627.407 63.312 627.791 63.312H632.111C632.815 63.312 633.231 63.184 633.359 62.928C633.487 62.608 633.551 61.808 633.551 60.528V30.288C633.551 25.168 632.911 22.608 631.631 22.608H628.175C627.407 22.608 627.023 22.128 627.023 21.168C627.023 20.144 627.375 19.632 628.079 19.632ZM676.891 25.776C682.075 20.976 688.091 18.576 694.939 18.576C701.787 18.576 707.771 20.976 712.891 25.776C718.075 30.576 720.667 36.272 720.667 42.864C720.667 49.392 718.075 55.088 712.891 59.952C707.771 64.816 701.787 67.248 694.939 67.248C688.091 67.248 682.075 64.816 676.891 59.952C671.771 55.088 669.211 49.392 669.211 42.864C669.211 36.272 671.771 30.576 676.891 25.776ZM706.555 28.08C703.547 24.048 699.675 22.032 694.939 22.032C690.203 22.032 686.331 24.048 683.323 28.08C680.315 32.048 678.811 36.976 678.811 42.864C678.811 48.688 680.315 53.648 683.323 57.744C686.331 61.776 690.203 63.792 694.939 63.792C699.675 63.792 703.547 61.776 706.555 57.744C709.563 53.648 711.067 48.688 711.067 42.864C711.067 36.976 709.563 32.048 706.555 28.08ZM768.312 45.936L778.2 45.744C778.648 45.744 778.872 46.224 778.872 47.184C778.872 48.144 778.648 48.624 778.2 48.624H776.088C774.936 48.624 774.136 48.848 773.688 49.296C773.304 49.744 773.112 50.576 773.112 51.792C773.112 58.832 773.272 63.344 773.592 65.328C773.976 67.312 774.168 68.432 774.168 68.688C774.168 69.264 773.848 69.552 773.208 69.552C772.696 69.552 772.088 68.656 771.384 66.864C770.744 65.136 770.136 64.272 769.56 64.272C769.432 64.272 768.696 64.528 767.352 65.04C763.512 66.512 759.8 67.248 756.216 67.248C748.088 67.248 741.368 65.264 736.056 61.296C730.808 57.328 728.184 51.536 728.184 43.92C728.184 36.304 731 30.192 736.632 25.584C742.328 20.912 749.112 18.576 756.984 18.576C760.44 18.576 764.216 19.44 768.312 21.168V19.632C768.312 19.12 768.728 18.864 769.56 18.864C770.392 18.864 770.808 19.12 770.808 19.632C770.808 23.6 771.032 27.12 771.48 30.192C771.544 30.384 771.416 30.576 771.096 30.768C770.84 30.896 770.424 30.96 769.848 30.96C769.272 30.96 768.92 30.736 768.792 30.288L768.312 27.216C764.536 23.824 760.216 22.128 755.352 22.128C750.552 22.128 746.424 23.984 742.968 27.696C739.576 31.408 737.88 36.4 737.88 42.672C737.88 48.944 739.608 54.032 743.064 57.936C746.52 61.84 750.872 63.792 756.12 63.792C757.784 63.792 759.352 63.6 760.824 63.216C762.296 62.768 763.352 62.32 763.992 61.872L764.952 61.2V54.768C764.952 50.672 764.472 48.624 763.512 48.624H756.12C755.672 48.624 755.448 48.176 755.448 47.28C755.448 46.32 755.672 45.84 756.12 45.84L768.312 45.936ZM824.562 45.936L834.45 45.744C834.898 45.744 835.122 46.224 835.122 47.184C835.122 48.144 834.898 48.624 834.45 48.624H832.338C831.186 48.624 830.386 48.848 829.938 49.296C829.554 49.744 829.362 50.576 829.362 51.792C829.362 58.832 829.522 63.344 829.842 65.328C830.226 67.312 830.418 68.432 830.418 68.688C830.418 69.264 830.098 69.552 829.458 69.552C828.946 69.552 828.338 68.656 827.634 66.864C826.994 65.136 826.386 64.272 825.81 64.272C825.682 64.272 824.946 64.528 823.602 65.04C819.762 66.512 816.05 67.248 812.466 67.248C804.338 67.248 797.618 65.264 792.306 61.296C787.058 57.328 784.434 51.536 784.434 43.92C784.434 36.304 787.25 30.192 792.882 25.584C798.578 20.912 805.362 18.576 813.234 18.576C816.69 18.576 820.466 19.44 824.562 21.168V19.632C824.562 19.12 824.978 18.864 825.81 18.864C826.642 18.864 827.058 19.12 827.058 19.632C827.058 23.6 827.282 27.12 827.73 30.192C827.794 30.384 827.666 30.576 827.346 30.768C827.09 30.896 826.674 30.96 826.098 30.96C825.522 30.96 825.17 30.736 825.042 30.288L824.562 27.216C820.786 23.824 816.466 22.128 811.602 22.128C806.802 22.128 802.674 23.984 799.218 27.696C795.826 31.408 794.13 36.4 794.13 42.672C794.13 48.944 795.858 54.032 799.314 57.936C802.77 61.84 807.122 63.792 812.37 63.792C814.034 63.792 815.602 63.6 817.074 63.216C818.546 62.768 819.602 62.32 820.242 61.872L821.202 61.2V54.768C821.202 50.672 820.722 48.624 819.762 48.624H812.37C811.922 48.624 811.698 48.176 811.698 47.28C811.698 46.32 811.922 45.84 812.37 45.84L824.562 45.936Z" fill="#283870"/>
</g>
<defs>
<filter id="filter0_d_4_18" x="0.976013" y="0.527985" width="838.146" height="77.024" filterUnits="userSpaceOnUse" color-interpolation-filters="sRGB">
<feFlood flood-opacity="0" result="BackgroundImageFix"/>
<feColorMatrix in="SourceAlpha" type="matrix" values="0 0 0 0 0 0 0 0 0 0 0 0 0 0 0 0 0 0 127 0" result="hardAlpha"/>
<feOffset dy="4"/>
<feGaussianBlur stdDeviation="2"/>
<feComposite in2="hardAlpha" operator="out"/>
<feColorMatrix type="matrix" values="0 0 0 0 0 0 0 0 0 0 0 0 0 0 0 0 0 0 0.25 0"/>
<feBlend mode="normal" in2="BackgroundImageFix" result="effect1_dropShadow_4_18"/>
<feBlend mode="normal" in="SourceGraphic" in2="effect1_dropShadow_4_18" result="shape"/>
</filter>
</defs>
</svg>
