<svg width="740" height="107" viewBox="0 0 740 107" fill="none" xmlns="http://www.w3.org/2000/svg">
<g filter="url(#filter0_d_4_18)">
<path d="M4.39062 70.3281C5.20312 70.2656 5.92188 70.2031 6.54688 70.1406C7.17188 70.0781 7.75 70.0156 8.28125 69.9531C8.8125 69.8906 9.32812 69.8438 9.82812 69.8125C10.3281 69.7812 10.8594 69.75 11.4219 69.7188L12.6406 33.5312C12.7344 31.3125 12.7812 29.2031 12.7812 27.2031C12.8125 25.2031 12.8281 23.2812 12.8281 21.4375C12.8281 18.5 12.7812 15.8906 12.6875 13.6094C12.625 11.2969 12.5469 9.35937 12.4531 7.79688L16.2969 6.39062L62.2812 61.6094C62.375 58.8906 62.4688 55.9688 62.5625 52.8438C62.6875 49.7188 62.7969 46.6094 62.8906 43.5156C62.9844 40.3906 63.0781 37.375 63.1719 34.4688C63.2656 31.5625 63.3438 28.9375 63.4062 26.5938C63.4688 24.2188 63.5156 22.25 63.5469 20.6875C63.6094 19.0938 63.6406 18.0625 63.6406 17.5938C63.6406 16.25 63.5469 15.1562 63.3594 14.3125C63.1719 13.4688 62.875 12.8125 62.4688 12.3438C62.0938 11.8437 61.6094 11.5 61.0156 11.3125C60.4531 11.0937 59.7969 10.9219 59.0469 10.7969L57.0312 10.5156V7.79688C57.4688 7.92188 58.0625 8.04687 58.8125 8.17188C59.4375 8.26562 60.2344 8.34375 61.2031 8.40625C62.1719 8.46875 63.3594 8.5 64.7656 8.5C66.1719 8.5 67.7656 8.45312 69.5469 8.35938C71.3594 8.23437 73.4219 8.04687 75.7344 7.79688V10.5156C74.9219 10.5781 74.2031 10.6406 73.5781 10.7031C72.9531 10.7656 72.375 10.8281 71.8438 10.8906C71.3438 10.9219 70.8438 10.9531 70.3438 10.9844C69.8438 11.0156 69.2969 11.0469 68.7031 11.0781L67.6719 41.2188C67.6406 42.0625 67.6094 43.1875 67.5781 44.5938C67.5469 46 67.5 47.4844 67.4375 49.0469C67.4062 50.5781 67.375 52.1094 67.3438 53.6406C67.3125 55.1719 67.2969 56.4688 67.2969 57.5312C67.2969 58.9375 67.2969 60.2656 67.2969 61.5156C67.2969 62.7344 67.2969 63.9531 67.2969 65.1719C67.3281 66.3906 67.3594 67.6406 67.3906 68.9219C67.4531 70.1719 67.5156 71.5312 67.5781 73L63.5469 74.3594L17.5625 19.7969C17.5 22.4531 17.4219 25.3125 17.3281 28.375C17.2656 31.4062 17.1875 34.4688 17.0938 37.5625C17.0312 40.625 16.9531 43.6094 16.8594 46.5156C16.7969 49.3906 16.7344 52 16.6719 54.3438C16.6094 56.6562 16.5625 58.6094 16.5312 60.2031C16.5 61.7656 16.4844 62.7656 16.4844 63.2031C16.4844 64.5781 16.5781 65.6875 16.7656 66.5312C16.9531 67.3438 17.2344 68 17.6094 68.5C17.9844 68.9688 18.4531 69.3125 19.0156 69.5312C19.6094 69.75 20.3125 69.9219 21.125 70.0469L23.1406 70.3281V73C22.6719 72.9062 22.0625 72.7969 21.3125 72.6719C20.6875 72.6094 19.8906 72.5469 18.9219 72.4844C17.9531 72.3906 16.7656 72.3438 15.3594 72.3438C13.9531 72.3438 12.3594 72.3906 10.5781 72.4844C8.79688 72.5781 6.73438 72.75 4.39062 73V70.3281ZM107.375 48.3438C104.031 48.3438 100.656 48.2188 97.25 47.9688C93.8438 47.7188 90.2969 47.4219 86.6094 47.0781C86.4219 48.5469 86.3281 49.9531 86.3281 51.2969C86.3594 54.7344 86.7969 57.5625 87.6406 59.7812C88.4844 62 89.5938 63.7656 90.9688 65.0781C92.375 66.3594 93.9688 67.25 95.75 67.75C97.5312 68.25 99.3906 68.5 101.328 68.5C102.547 68.5 103.703 68.4219 104.797 68.2656C105.922 68.0781 107.047 67.7969 108.172 67.4219C109.297 67.0469 110.438 66.5625 111.594 65.9688C112.781 65.3438 114.031 64.5781 115.344 63.6719L116.562 65.5C113.438 68.1562 110.328 70.2344 107.234 71.7344C104.172 73.2031 100.891 73.9375 97.3906 73.9375C94.5781 73.9375 92.0469 73.4219 89.7969 72.3906C87.5781 71.3281 85.6875 69.9219 84.125 68.1719C82.5938 66.3906 81.4062 64.3438 80.5625 62.0312C79.75 59.6875 79.3438 57.2344 79.3438 54.6719C79.3438 51.3281 79.9062 48.2188 81.0312 45.3438C82.1875 42.4375 83.7344 39.9219 85.6719 37.7969C87.6406 35.6719 89.9062 34 92.4688 32.7812C95.0312 31.5625 97.7188 30.9531 100.531 30.9531C103.375 30.9531 105.734 31.4375 107.609 32.4062C109.516 33.3438 111.031 34.5625 112.156 36.0625C113.312 37.5625 114.125 39.2188 114.594 41.0312C115.094 42.8125 115.344 44.5469 115.344 46.2344C115.344 46.5781 115.344 46.8906 115.344 47.1719C115.344 47.4531 115.312 47.75 115.25 48.0625C112.531 48.25 109.906 48.3438 107.375 48.3438ZM98.8906 33.7188C97.2969 33.7188 95.8594 34.0156 94.5781 34.6094C93.3281 35.2031 92.2031 36.0156 91.2031 37.0469C90.2344 38.0469 89.4062 39.2344 88.7188 40.6094C88.0625 41.9531 87.5312 43.375 87.125 44.875C89.3438 44.9375 91.2031 44.9844 92.7031 45.0156C94.2344 45.0469 95.5312 45.0625 96.5938 45.0625H101.234C102.328 45.0625 103.438 45.0469 104.562 45.0156C105.688 44.9844 107 44.9375 108.5 44.875V44.4062C108.5 42.7188 108.266 41.2188 107.797 39.9062C107.328 38.5625 106.672 37.4375 105.828 36.5312C104.984 35.625 103.969 34.9375 102.781 34.4688C101.594 33.9688 100.297 33.7188 98.8906 33.7188ZM193.859 73C192.234 73.0625 190.719 73.1094 189.312 73.1406C187.906 73.2031 186.562 73.2812 185.281 73.375C184 73.4688 182.75 73.5938 181.531 73.75C180.344 73.9375 179.141 74.2031 177.922 74.5469C178.203 72.7344 178.5 70.6875 178.812 68.4062C179.125 66.125 179.406 63.8281 179.656 61.5156C179.906 59.1719 180.109 56.8906 180.266 54.6719C180.422 52.4531 180.5 50.5 180.5 48.8125C180.5 47.1875 180.391 45.5938 180.172 44.0312C179.953 42.4688 179.562 41.0781 179 39.8594C178.438 38.6094 177.656 37.6094 176.656 36.8594C175.656 36.1094 174.359 35.7344 172.766 35.7344C171.703 35.7344 170.656 35.9375 169.625 36.3438C168.594 36.75 167.594 37.2656 166.625 37.8906C165.656 38.4844 164.734 39.1719 163.859 39.9531C162.984 40.7031 162.172 41.4219 161.422 42.1094V43.5156C161.422 45.2656 161.344 47.0938 161.188 49C161.062 50.9062 160.906 52.7969 160.719 54.6719C160.562 56.5156 160.406 58.3125 160.25 60.0625C160.125 61.7812 160.062 63.3438 160.062 64.75C160.062 65.9688 160.156 66.9688 160.344 67.75C160.562 68.5312 160.891 69.1562 161.328 69.625C161.797 70.0625 162.391 70.375 163.109 70.5625C163.828 70.7188 164.703 70.7969 165.734 70.7969H168.312V73C166.688 73.0625 165.172 73.1094 163.766 73.1406C162.359 73.2031 161.016 73.2812 159.734 73.375C158.453 73.4688 157.203 73.5938 155.984 73.75C154.797 73.9375 153.594 74.2031 152.375 74.5469C152.656 72.7344 152.953 70.6875 153.266 68.4062C153.578 66.125 153.859 63.8281 154.109 61.5156C154.391 59.1719 154.609 56.8906 154.766 54.6719C154.922 52.4531 155 50.5 155 48.8125C155 47.1875 154.891 45.5938 154.672 44.0312C154.484 42.4688 154.094 41.0781 153.5 39.8594C152.938 38.6094 152.141 37.6094 151.109 36.8594C150.109 36.1094 148.812 35.7344 147.219 35.7344C146.125 35.7344 145.031 35.9531 143.938 36.3906C142.875 36.8281 141.844 37.3906 140.844 38.0781C139.875 38.7344 138.938 39.4688 138.031 40.2812C137.125 41.0625 136.281 41.7969 135.5 42.4844C135.375 43.9844 135.266 45.5625 135.172 47.2188C135.078 48.8438 134.984 50.4688 134.891 52.0938C134.828 53.7188 134.766 55.2969 134.703 56.8281C134.672 58.3594 134.656 59.7812 134.656 61.0938C134.656 63.125 134.703 64.7656 134.797 66.0156C134.891 67.2656 135.125 68.25 135.5 68.9688C135.875 69.6875 136.438 70.1719 137.188 70.4219C137.969 70.6719 139.031 70.7969 140.375 70.7969H142.812V73H141.922C138.984 73 136.297 73.1094 133.859 73.3281C131.453 73.5469 129.125 73.9531 126.875 74.5469C127.594 69.9844 128.156 65.2969 128.562 60.4844C128.969 55.6406 129.172 50.6875 129.172 45.625C129.172 44.4062 129.109 43.2031 128.984 42.0156C128.891 40.8281 128.594 39.7812 128.094 38.875C127.594 37.9375 126.828 37.1875 125.797 36.625C124.766 36.0312 123.328 35.7344 121.484 35.7344H120.641V33.4375C122.047 33.375 123.328 33.3125 124.484 33.25C125.672 33.1562 126.844 33.0312 128 32.875C129.188 32.6875 130.422 32.4531 131.703 32.1719C132.984 31.8594 134.438 31.4531 136.062 30.9531C135.781 32.3594 135.484 33.8594 135.172 35.4531C134.891 37.0156 134.672 38.4531 134.516 39.7656C136.109 38.2969 137.594 37.0156 138.969 35.9219C140.375 34.8281 141.734 33.9219 143.047 33.2031C144.391 32.4531 145.734 31.8906 147.078 31.5156C148.422 31.1406 149.844 30.9531 151.344 30.9531C152.188 30.9531 153.094 31.0625 154.062 31.2812C155.031 31.5 155.969 31.9062 156.875 32.5C157.781 33.0625 158.594 33.875 159.312 34.9375C160.031 35.9688 160.578 37.3281 160.953 39.0156C162.453 37.6719 163.859 36.5 165.172 35.5C166.484 34.4688 167.766 33.625 169.016 32.9688C170.297 32.2812 171.578 31.7812 172.859 31.4688C174.141 31.125 175.516 30.9531 176.984 30.9531C177.953 30.9531 179.016 31.1094 180.172 31.4219C181.328 31.7031 182.406 32.2969 183.406 33.2031C184.406 34.1094 185.25 35.3906 185.938 37.0469C186.625 38.6719 186.969 40.8281 186.969 43.5156C186.969 45.2656 186.891 47.0938 186.734 49C186.609 50.9062 186.453 52.7969 186.266 54.6719C186.109 56.5156 185.953 58.3125 185.797 60.0625C185.672 61.7812 185.609 63.3438 185.609 64.75C185.609 65.9688 185.703 66.9688 185.891 67.75C186.109 68.5312 186.438 69.1562 186.875 69.625C187.344 70.0625 187.938 70.375 188.656 70.5625C189.375 70.7188 190.25 70.7969 191.281 70.7969H193.859V73ZM219.594 33.625C217.281 33.625 215.234 34.1406 213.453 35.1719C211.672 36.2031 210.172 37.5781 208.953 39.2969C207.766 41.0156 206.859 43 206.234 45.25C205.609 47.4688 205.297 49.7812 205.297 52.1875C205.297 54.4688 205.578 56.7344 206.141 58.9844C206.703 61.2344 207.562 63.2656 208.719 65.0781C209.906 66.8594 211.406 68.3125 213.219 69.4375C215.062 70.5312 217.25 71.0781 219.781 71.0781C222.031 71.0781 224.031 70.6562 225.781 69.8125C227.531 68.9688 229.016 67.7656 230.234 66.2031C231.453 64.6406 232.375 62.7344 233 60.4844C233.656 58.2344 233.984 55.7188 233.984 52.9375C233.984 50.875 233.703 48.7188 233.141 46.4688C232.578 44.1875 231.703 42.0938 230.516 40.1875C229.359 38.2812 227.875 36.7188 226.062 35.5C224.25 34.25 222.094 33.625 219.594 33.625ZM198.406 54.6719C198.406 51.7031 198.938 48.7969 200 45.9531C201.062 43.1094 202.594 40.5781 204.594 38.3594C206.594 36.1406 209.031 34.3594 211.906 33.0156C214.781 31.6406 218.047 30.9531 221.703 30.9531C225.172 30.9531 228.125 31.4375 230.562 32.4062C233 33.375 234.984 34.7031 236.516 36.3906C238.047 38.0469 239.156 39.9844 239.844 42.2031C240.562 44.4219 240.922 46.7812 240.922 49.2812C240.922 52.6562 240.328 55.8438 239.141 58.8438C237.953 61.8438 236.312 64.4688 234.219 66.7188C232.125 68.9375 229.672 70.7031 226.859 72.0156C224.047 73.2969 221.016 73.9375 217.766 73.9375C214.016 73.9375 210.891 73.4062 208.391 72.3438C205.922 71.25 203.938 69.8125 202.438 68.0312C200.969 66.25 199.922 64.2031 199.297 61.8906C198.703 59.5781 198.406 57.1719 198.406 54.6719ZM246.312 22.1406C247.125 21.5469 247.922 20.9062 248.703 20.2188C249.484 19.5312 250.172 18.7969 250.766 18.0156C251.359 17.2031 251.828 16.3594 252.172 15.4844C252.547 14.5781 252.734 13.625 252.734 12.625C252.734 11.5938 252.562 10.6719 252.219 9.85938C251.906 9.04688 251.484 8.34375 250.953 7.75C250.422 7.125 249.828 6.60938 249.172 6.20312C248.516 5.76563 247.844 5.40625 247.156 5.125C247.156 4.5625 247.25 4 247.438 3.4375C247.656 2.84375 247.984 2.3125 248.422 1.84375C248.859 1.34375 249.391 0.9375 250.016 0.625C250.672 0.3125 251.453 0.15625 252.359 0.15625C253.109 0.15625 253.844 0.296875 254.562 0.578125C255.281 0.859375 255.922 1.3125 256.484 1.9375C257.078 2.53125 257.547 3.3125 257.891 4.28125C258.234 5.21875 258.406 6.35937 258.406 7.70312C258.406 8.85938 258.234 10.125 257.891 11.5C257.578 12.8438 257.016 14.2344 256.203 15.6719C255.391 17.1094 254.297 18.5625 252.922 20.0312C251.578 21.4688 249.859 22.8438 247.766 24.1562L246.312 22.1406ZM284.797 43.4219C284.891 42.8906 284.969 42.375 285.031 41.875C285.125 41.3438 285.172 40.8438 285.172 40.375C285.172 38.3438 284.641 36.7188 283.578 35.5C282.547 34.25 280.906 33.625 278.656 33.625C277.406 33.625 276.281 33.8125 275.281 34.1875C274.281 34.5312 273.422 35.0156 272.703 35.6406C272.016 36.2344 271.484 36.9531 271.109 37.7969C270.734 38.6094 270.547 39.4688 270.547 40.375C270.547 41.75 270.859 42.9062 271.484 43.8438C272.141 44.75 272.969 45.5469 273.969 46.2344C274.969 46.9219 276.078 47.5469 277.297 48.1094C278.516 48.6719 279.719 49.2656 280.906 49.8906C282.062 50.5156 283.234 51.1875 284.422 51.9062C285.641 52.5938 286.734 53.4062 287.703 54.3438C288.703 55.2812 289.5 56.3594 290.094 57.5781C290.719 58.7969 291.031 60.2188 291.031 61.8438C291.031 63.3125 290.734 64.7656 290.141 66.2031C289.547 67.6406 288.594 68.9375 287.281 70.0938C285.969 71.25 284.266 72.1875 282.172 72.9062C280.078 73.5938 277.547 73.9375 274.578 73.9375C272.797 73.9375 271.156 73.7812 269.656 73.4688C268.188 73.1562 266.922 72.7031 265.859 72.1094C264.797 71.5156 263.969 70.7812 263.375 69.9062C262.781 69.0312 262.484 68.0469 262.484 66.9531C262.484 65.2656 263.047 63.9375 264.172 62.9688C265.297 61.9688 266.719 61.4375 268.438 61.375V62.2656C268.438 65.1094 269.219 67.3594 270.781 69.0156C272.375 70.6406 274.484 71.4531 277.109 71.4531C278.078 71.4531 279.031 71.2969 279.969 70.9844C280.906 70.6719 281.75 70.2031 282.5 69.5781C283.25 68.9531 283.844 68.1562 284.281 67.1875C284.75 66.1875 284.984 65.0156 284.984 63.6719C284.984 62.3281 284.641 61.1562 283.953 60.1562C283.266 59.1562 282.391 58.2812 281.328 57.5312C280.297 56.7812 279.172 56.125 277.953 55.5625C276.734 54.9688 275.594 54.4062 274.531 53.875L272.891 53.0312C271.672 52.4062 270.562 51.7812 269.562 51.1562C268.594 50.5312 267.766 49.8438 267.078 49.0938C266.391 48.3125 265.859 47.4219 265.484 46.4219C265.109 45.3906 264.922 44.1719 264.922 42.7656C264.922 41.1406 265.156 39.7344 265.625 38.5469C266.125 37.3281 266.781 36.2812 267.594 35.4062C268.406 34.5312 269.344 33.8125 270.406 33.25C271.469 32.6562 272.562 32.2031 273.688 31.8906C274.812 31.5469 275.938 31.3125 277.062 31.1875C278.188 31.0312 279.219 30.9531 280.156 30.9531C281.594 30.9531 282.984 31.0938 284.328 31.375C285.703 31.625 286.922 32.0312 287.984 32.5938C289.047 33.1562 289.891 33.8906 290.516 34.7969C291.172 35.7031 291.5 36.7969 291.5 38.0781C291.5 38.7656 291.359 39.4375 291.078 40.0938C290.797 40.7188 290.375 41.2812 289.812 41.7812C289.281 42.2812 288.594 42.6875 287.75 43C286.906 43.2812 285.922 43.4219 284.797 43.4219ZM325.344 13.75C325.344 11.9063 325.25 10.4063 325.062 9.25C324.906 8.09375 324.578 7.1875 324.078 6.53125C323.578 5.875 322.875 5.4375 321.969 5.21875C321.094 4.96875 319.953 4.84375 318.547 4.84375H316.812V2.64062C318.188 2.57813 319.469 2.5 320.656 2.40625C321.844 2.28125 323.047 2.125 324.266 1.9375C325.516 1.75 326.828 1.51562 328.203 1.23438C329.578 0.953125 331.125 0.59375 332.844 0.15625C332.719 1.34375 332.578 2.82812 332.422 4.60938C332.266 6.39062 332.094 8.35938 331.906 10.5156C331.75 12.6719 331.578 14.9688 331.391 17.4062C331.203 19.8438 331.031 22.3125 330.875 24.8125C330.719 27.2812 330.562 29.75 330.406 32.2188C330.281 34.6562 330.172 36.9531 330.078 39.1094C331.797 37.7031 333.406 36.5 334.906 35.5C336.438 34.4688 337.906 33.625 339.312 32.9688C340.75 32.2812 342.172 31.7812 343.578 31.4688C344.984 31.125 346.438 30.9531 347.938 30.9531C348.906 30.9531 350 31.1094 351.219 31.4219C352.469 31.7031 353.641 32.2969 354.734 33.2031C355.828 34.1094 356.75 35.3906 357.5 37.0469C358.281 38.6719 358.672 40.8281 358.672 43.5156C358.672 45.2656 358.594 47.0938 358.438 49C358.312 50.9062 358.156 52.7969 357.969 54.6719C357.812 56.5156 357.656 58.3125 357.5 60.0625C357.375 61.7812 357.312 63.3438 357.312 64.75C357.312 65.9688 357.406 66.9688 357.594 67.75C357.812 68.5 358.141 69.1094 358.578 69.5781C359.047 70.0156 359.641 70.3125 360.359 70.4688C361.078 70.625 361.953 70.7031 362.984 70.7031H365.562V73C363.938 73.0625 362.422 73.1094 361.016 73.1406C359.609 73.2031 358.266 73.2812 356.984 73.375C355.703 73.4688 354.453 73.5938 353.234 73.75C352.047 73.9375 350.844 74.2031 349.625 74.5469C349.906 72.7344 350.203 70.6875 350.516 68.4062C350.828 66.125 351.109 63.8281 351.359 61.5156C351.641 59.1719 351.859 56.8906 352.016 54.6719C352.172 52.4531 352.25 50.5 352.25 48.8125C352.25 47.1875 352.172 45.5938 352.016 44.0312C351.891 42.4688 351.531 41.0781 350.938 39.8594C350.375 38.6094 349.5 37.6094 348.312 36.8594C347.125 36.1094 345.484 35.7344 343.391 35.7344C342.203 35.7344 340.969 35.9531 339.688 36.3906C338.438 36.8281 337.219 37.375 336.031 38.0312C334.844 38.6875 333.719 39.4219 332.656 40.2344C331.625 41.0469 330.734 41.8281 329.984 42.5781C329.891 44.0781 329.797 45.6562 329.703 47.3125C329.641 48.9375 329.594 50.5625 329.562 52.1875C329.531 53.7812 329.5 55.3438 329.469 56.875C329.469 58.375 329.469 59.7812 329.469 61.0938C329.469 63.125 329.516 64.7656 329.609 66.0156C329.734 67.2656 329.984 68.25 330.359 68.9688C330.766 69.6875 331.359 70.1719 332.141 70.4219C332.922 70.6719 333.984 70.7969 335.328 70.7969H337.625V73C335.938 73 334.375 73.0156 332.938 73.0469C331.5 73.1094 330.125 73.2031 328.812 73.3281C327.531 73.4531 326.297 73.6094 325.109 73.7969C323.953 74.0156 322.812 74.2656 321.688 74.5469C322.125 70.2031 322.516 65.9062 322.859 61.6562C323.234 57.375 323.562 53.25 323.844 49.2812C324.125 45.2812 324.359 41.4844 324.547 37.8906C324.734 34.2656 324.891 30.9219 325.016 27.8594C325.141 24.7969 325.219 22.0781 325.25 19.7031C325.312 17.2969 325.344 15.3125 325.344 13.75ZM367.719 33.4375C370.531 33.3438 373.297 33.0781 376.016 32.6406C378.734 32.2031 381.312 31.6406 383.75 30.9531C383.094 35.1094 382.453 39.3281 381.828 43.6094C381.203 47.8906 380.891 52.2812 380.891 56.7812C380.891 58.5312 381 60.1562 381.219 61.6562C381.469 63.1562 381.922 64.4688 382.578 65.5938C383.266 66.6875 384.219 67.5625 385.438 68.2188C386.656 68.8438 388.25 69.1562 390.219 69.1562C391.281 69.1562 392.406 68.9375 393.594 68.5C394.781 68.0625 395.953 67.5156 397.109 66.8594C398.266 66.1719 399.359 65.4375 400.391 64.6562C401.422 63.875 402.312 63.1406 403.062 62.4531C403.25 59.5469 403.422 56.625 403.578 53.6875C403.734 50.75 403.812 47.7188 403.812 44.5938C403.812 43.125 403.734 41.8438 403.578 40.75C403.453 39.625 403.125 38.6875 402.594 37.9375C402.062 37.1875 401.281 36.625 400.25 36.25C399.25 35.8438 397.859 35.6406 396.078 35.6406H395.375V33.4375C398.719 33.2812 401.688 33 404.281 32.5938C406.875 32.1875 409.344 31.6406 411.688 30.9531C411.531 31.6719 411.359 32.6719 411.172 33.9531C411.016 35.2344 410.844 36.7031 410.656 38.3594C410.5 40.0156 410.344 41.7969 410.188 43.7031C410.031 45.6094 409.891 47.5625 409.766 49.5625C409.641 51.5312 409.547 53.4844 409.484 55.4219C409.422 57.3594 409.391 59.1875 409.391 60.9062C409.391 62.3438 409.453 63.6719 409.578 64.8906C409.734 66.1094 410.062 67.1562 410.562 68.0312C411.094 68.9062 411.859 69.5938 412.859 70.0938C413.859 70.5625 415.234 70.7969 416.984 70.7969H417.969V73C416.125 73.0625 414.469 73.125 413 73.1875C411.531 73.25 410.188 73.3281 408.969 73.4219C407.75 73.5156 406.625 73.6406 405.594 73.7969C404.562 73.9844 403.562 74.2344 402.594 74.5469C402.719 73.8594 402.859 73.1094 403.016 72.2969C403.172 71.4531 403.312 70.6094 403.438 69.7656C403.562 68.9219 403.672 68.1094 403.766 67.3281C403.891 66.5156 403.984 65.7812 404.047 65.125C400.422 68.3438 397.062 70.625 393.969 71.9688C390.906 73.2812 388.109 73.9375 385.578 73.9375C383.922 73.9375 382.422 73.6719 381.078 73.1406C379.766 72.6406 378.641 71.8594 377.703 70.7969C376.766 69.7031 376.031 68.3438 375.5 66.7188C375 65.0625 374.75 63.0938 374.75 60.8125C374.75 59.2812 374.797 57.6562 374.891 55.9375C375.016 54.1875 375.141 52.4688 375.266 50.7812C375.391 49.0625 375.5 47.4219 375.594 45.8594C375.719 44.2969 375.781 42.9062 375.781 41.6875C375.781 39.5312 375.25 37.9844 374.188 37.0469C373.156 36.1094 371.297 35.6406 368.609 35.6406H367.719V33.4375ZM470.281 73C468.625 73.0625 467.094 73.1094 465.688 73.1406C464.281 73.2031 462.938 73.2812 461.656 73.375C460.406 73.4688 459.172 73.5938 457.953 73.75C456.766 73.9375 455.562 74.2031 454.344 74.5469C454.625 72.7344 454.906 70.6875 455.188 68.4062C455.5 66.125 455.781 63.8281 456.031 61.5156C456.312 59.1719 456.531 56.8906 456.688 54.6719C456.844 52.4531 456.922 50.5 456.922 48.8125C456.922 47.1875 456.844 45.5938 456.688 44.0312C456.562 42.4688 456.203 41.0781 455.609 39.8594C455.047 38.6094 454.172 37.6094 452.984 36.8594C451.797 36.1094 450.156 35.7344 448.062 35.7344C446.875 35.7344 445.672 35.9531 444.453 36.3906C443.234 36.7969 442.047 37.3281 440.891 37.9844C439.766 38.6094 438.688 39.3125 437.656 40.0938C436.656 40.875 435.781 41.6094 435.031 42.2969C434.938 43.7969 434.828 45.3906 434.703 47.0781C434.609 48.7344 434.516 50.3906 434.422 52.0469C434.359 53.6719 434.297 55.2656 434.234 56.8281C434.172 58.3594 434.141 59.7812 434.141 61.0938C434.141 63.125 434.188 64.7656 434.281 66.0156C434.406 67.2656 434.656 68.25 435.031 68.9688C435.438 69.6875 436.031 70.1719 436.812 70.4219C437.594 70.6719 438.656 70.7969 440 70.7969H442.344V73C438.969 73 436.031 73.1094 433.531 73.3281C431.031 73.5469 428.656 73.9531 426.406 74.5469C427.125 69.9844 427.688 65.2969 428.094 60.4844C428.5 55.6406 428.703 50.6875 428.703 45.625C428.703 44.4062 428.656 43.2031 428.562 42.0156C428.469 40.8281 428.172 39.7656 427.672 38.8281C427.172 37.8594 426.406 37.0938 425.375 36.5312C424.344 35.9375 422.891 35.6406 421.016 35.6406H420.125V33.4375C421.531 33.375 422.828 33.3125 424.016 33.25C425.203 33.1562 426.375 33.0312 427.531 32.875C428.719 32.6875 429.953 32.4531 431.234 32.1719C432.516 31.8594 433.969 31.4531 435.594 30.9531C435.312 32.3594 435.016 33.8594 434.703 35.4531C434.422 37.0156 434.203 38.4531 434.047 39.7656C437.516 36.8281 440.719 34.625 443.656 33.1562C446.594 31.6875 449.578 30.9531 452.609 30.9531C453.578 30.9531 454.672 31.1094 455.891 31.4219C457.141 31.7031 458.312 32.2969 459.406 33.2031C460.5 34.1094 461.422 35.3906 462.172 37.0469C462.953 38.6719 463.344 40.8281 463.344 43.5156C463.344 45.2656 463.266 47.0938 463.109 49C462.984 50.9062 462.828 52.7969 462.641 54.6719C462.484 56.5156 462.328 58.3125 462.172 60.0625C462.047 61.7812 461.984 63.3438 461.984 64.75C461.984 66 462.078 67.0156 462.266 67.7969C462.484 68.5781 462.812 69.2031 463.25 69.6719C463.719 70.1094 464.312 70.4062 465.031 70.5625C465.781 70.7188 466.688 70.7969 467.75 70.7969H470.281V73ZM507.781 13.75C507.781 11.9063 507.688 10.4063 507.5 9.25C507.344 8.09375 507.016 7.1875 506.516 6.53125C506.016 5.875 505.312 5.4375 504.406 5.21875C503.531 4.96875 502.391 4.84375 500.984 4.84375H499.25V2.64062C500.75 2.57813 502.156 2.48438 503.469 2.35938C504.812 2.20313 506.125 2.03125 507.406 1.84375C508.688 1.625 509.969 1.375 511.25 1.09375C512.562 0.8125 513.938 0.5 515.375 0.15625C515.156 1.90625 514.906 4.21875 514.625 7.09375C514.375 9.9375 514.125 13.125 513.875 16.6562C513.625 20.1562 513.375 23.875 513.125 27.8125C512.906 31.75 512.703 35.6562 512.516 39.5312C512.328 43.375 512.172 47.0938 512.047 50.6875C511.953 54.25 511.906 57.4375 511.906 60.25C511.906 61.9375 511.969 63.4375 512.094 64.75C512.219 66.0312 512.531 67.125 513.031 68.0312C513.531 68.9375 514.281 69.625 515.281 70.0938C516.281 70.5625 517.656 70.7969 519.406 70.7969H520.484V73C518.641 73.0625 516.984 73.125 515.516 73.1875C514.047 73.25 512.703 73.3281 511.484 73.4219C510.266 73.5156 509.141 73.6406 508.109 73.7969C507.078 73.9844 506.078 74.2344 505.109 74.5469C505.234 73.9844 505.359 73.2969 505.484 72.4844C505.641 71.6719 505.781 70.8281 505.906 69.9531C506.062 69.0469 506.188 68.1719 506.281 67.3281C506.406 66.4531 506.5 65.6875 506.562 65.0312C503.406 67.7812 500.406 69.9531 497.562 71.5469C494.719 73.1406 491.984 73.9375 489.359 73.9375C487.234 73.9375 485.281 73.5625 483.5 72.8125C481.719 72.0312 480.172 70.8906 478.859 69.3906C477.547 67.8594 476.516 65.9688 475.766 63.7188C475.047 61.4688 474.688 58.8594 474.688 55.8906C474.688 53.3594 475 51 475.625 48.8125C476.281 46.5938 477.156 44.5625 478.25 42.7188C479.375 40.8438 480.672 39.1875 482.141 37.75C483.641 36.2812 485.234 35.0469 486.922 34.0469C488.609 33.0469 490.359 32.2812 492.172 31.75C493.984 31.2188 495.766 30.9531 497.516 30.9531C499.391 30.9531 501.078 31.0938 502.578 31.375C504.109 31.625 505.656 31.9688 507.219 32.4062C507.281 30.8438 507.344 29.2344 507.406 27.5781C507.5 25.9219 507.562 24.2812 507.594 22.6562C507.656 21.0312 507.703 19.4688 507.734 17.9688C507.766 16.4375 507.781 15.0312 507.781 13.75ZM492.922 68.9688C494.047 68.9688 495.141 68.7969 496.203 68.4531C497.297 68.1094 498.359 67.6562 499.391 67.0938C500.422 66.5 501.422 65.8281 502.391 65.0781C503.391 64.3281 504.359 63.5469 505.297 62.7344C505.578 59.0156 505.859 55.0469 506.141 50.8281C506.422 46.6094 506.688 42.0312 506.938 37.0938C506.219 36.5938 505.484 36.125 504.734 35.6875C503.984 35.25 503.188 34.875 502.344 34.5625C501.531 34.25 500.641 34 499.672 33.8125C498.703 33.625 497.641 33.5312 496.484 33.5312C494.453 33.5312 492.531 34 490.719 34.9375C488.938 35.875 487.375 37.2188 486.031 38.9688C484.688 40.7188 483.625 42.8438 482.844 45.3438C482.062 47.8125 481.672 50.5938 481.672 53.6875C481.672 56.5312 482 58.9219 482.656 60.8594C483.344 62.7969 484.219 64.375 485.281 65.5938C486.344 66.7812 487.547 67.6406 488.891 68.1719C490.234 68.7031 491.578 68.9688 492.922 68.9688ZM526.391 69.4375C526.609 66.5938 526.844 63.5938 527.094 60.4375C527.344 57.2812 527.578 54.0625 527.797 50.7812C528.047 47.5 528.266 44.2031 528.453 40.8906C528.672 37.5781 528.859 34.3438 529.016 31.1875C529.172 28 529.297 24.9375 529.391 22C529.484 19.0625 529.531 16.3125 529.531 13.75C529.531 11.9063 529.438 10.4063 529.25 9.25C529.094 8.09375 528.766 7.1875 528.266 6.53125C527.766 5.875 527.062 5.4375 526.156 5.21875C525.281 4.96875 524.141 4.84375 522.734 4.84375H521V2.64062C522.375 2.57813 523.656 2.5 524.844 2.40625C526.031 2.28125 527.234 2.125 528.453 1.9375C529.703 1.75 531 1.51562 532.344 1.23438C533.719 0.953125 535.281 0.59375 537.031 0.15625C536.938 1.03125 536.812 2.25 536.656 3.8125C536.531 5.34375 536.375 7.125 536.188 9.15625C536.031 11.1563 535.859 13.3594 535.672 15.7656C535.484 18.1406 535.297 20.625 535.109 23.2188C534.953 25.7812 534.797 28.4219 534.641 31.1406C534.484 33.8281 534.344 36.4844 534.219 39.1094C536.031 37.6094 537.719 36.3438 539.281 35.3125C540.844 34.2812 542.312 33.4531 543.688 32.8281C545.094 32.1719 546.391 31.7031 547.578 31.4219C548.766 31.1094 549.891 30.9531 550.953 30.9531C553.328 30.9531 555.406 31.4219 557.188 32.3594C558.969 33.2656 560.438 34.5312 561.594 36.1562C562.781 37.7812 563.672 39.7031 564.266 41.9219C564.859 44.1406 565.156 46.5312 565.156 49.0938C565.156 52.875 564.469 56.2969 563.094 59.3594C561.75 62.4219 559.984 65.0312 557.797 67.1875C555.609 69.3438 553.141 71.0156 550.391 72.2031C547.672 73.3594 544.938 73.9375 542.188 73.9375C540.875 73.9375 539.469 73.8281 537.969 73.6094C536.5 73.3906 535.047 73.0938 533.609 72.7188C532.203 72.3125 530.859 71.8438 529.578 71.3125C528.328 70.75 527.266 70.125 526.391 69.4375ZM534.125 42.5781C534 44.5156 533.891 46.625 533.797 48.9062C533.703 51.1875 533.625 53.4375 533.562 55.6562C533.5 57.875 533.453 59.9688 533.422 61.9375C533.391 63.875 533.375 65.4844 533.375 66.7656C534.781 67.9219 536.5 68.8906 538.531 69.6719C540.594 70.4219 542.844 70.7969 545.281 70.7969C547 70.7969 548.641 70.3438 550.203 69.4375C551.766 68.5312 553.125 67.2344 554.281 65.5469C555.469 63.8594 556.406 61.8281 557.094 59.4531C557.781 57.0469 558.125 54.3594 558.125 51.3906C558.125 46.4219 557.234 42.5781 555.453 39.8594C553.672 37.1094 551.016 35.7344 547.484 35.7344C546.297 35.7344 545.047 35.9688 543.734 36.4375C542.422 36.9062 541.156 37.4844 539.938 38.1719C538.75 38.8594 537.641 39.6094 536.609 40.4219C535.578 41.2031 534.75 41.9219 534.125 42.5781ZM582.266 62.2656C582.266 64.0469 582.328 65.5 582.453 66.625C582.609 67.75 582.906 68.625 583.344 69.25C583.781 69.8438 584.406 70.25 585.219 70.4688C586.031 70.6875 587.094 70.7969 588.406 70.7969H590.422V73C588.922 73.0625 587.516 73.1094 586.203 73.1406C584.891 73.1719 583.609 73.2344 582.359 73.3281C581.109 73.4219 579.844 73.5469 578.562 73.7031C577.281 73.8906 575.922 74.1719 574.484 74.5469C574.859 70.6719 575.203 66.7031 575.516 62.6406C575.859 58.5469 576.172 54.5156 576.453 50.5469C576.734 46.5469 576.969 42.6719 577.156 38.9219C577.375 35.1719 577.547 31.7031 577.672 28.5156C577.828 25.2969 577.938 22.4219 578 19.8906C578.094 17.3594 578.141 15.3125 578.141 13.75C578.141 11.9063 578.047 10.4063 577.859 9.25C577.672 8.09375 577.328 7.1875 576.828 6.53125C576.328 5.875 575.625 5.4375 574.719 5.21875C573.844 4.96875 572.703 4.84375 571.297 4.84375H569.562V2.64062C571.062 2.57813 572.469 2.48438 573.781 2.35938C575.125 2.20313 576.422 2.03125 577.672 1.84375C578.953 1.625 580.234 1.375 581.516 1.09375C582.797 0.8125 584.156 0.5 585.594 0.15625C585.219 4.125 584.875 8.21875 584.562 12.4375C584.25 16.6562 583.969 20.8281 583.719 24.9531C583.469 29.0781 583.25 33.0781 583.062 36.9531C582.875 40.7969 582.719 44.3594 582.594 47.6406C582.5 50.8906 582.422 53.7812 582.359 56.3125C582.297 58.8438 582.266 60.8281 582.266 62.2656ZM616.062 33.625C613.75 33.625 611.703 34.1406 609.922 35.1719C608.141 36.2031 606.641 37.5781 605.422 39.2969C604.234 41.0156 603.328 43 602.703 45.25C602.078 47.4688 601.766 49.7812 601.766 52.1875C601.766 54.4688 602.047 56.7344 602.609 58.9844C603.172 61.2344 604.031 63.2656 605.188 65.0781C606.375 66.8594 607.875 68.3125 609.688 69.4375C611.531 70.5312 613.719 71.0781 616.25 71.0781C618.5 71.0781 620.5 70.6562 622.25 69.8125C624 68.9688 625.484 67.7656 626.703 66.2031C627.922 64.6406 628.844 62.7344 629.469 60.4844C630.125 58.2344 630.453 55.7188 630.453 52.9375C630.453 50.875 630.172 48.7188 629.609 46.4688C629.047 44.1875 628.172 42.0938 626.984 40.1875C625.828 38.2812 624.344 36.7188 622.531 35.5C620.719 34.25 618.562 33.625 616.062 33.625ZM594.875 54.6719C594.875 51.7031 595.406 48.7969 596.469 45.9531C597.531 43.1094 599.062 40.5781 601.062 38.3594C603.062 36.1406 605.5 34.3594 608.375 33.0156C611.25 31.6406 614.516 30.9531 618.172 30.9531C621.641 30.9531 624.594 31.4375 627.031 32.4062C629.469 33.375 631.453 34.7031 632.984 36.3906C634.516 38.0469 635.625 39.9844 636.312 42.2031C637.031 44.4219 637.391 46.7812 637.391 49.2812C637.391 52.6562 636.797 55.8438 635.609 58.8438C634.422 61.8438 632.781 64.4688 630.688 66.7188C628.594 68.9375 626.141 70.7031 623.328 72.0156C620.516 73.2969 617.484 73.9375 614.234 73.9375C610.484 73.9375 607.359 73.4062 604.859 72.3438C602.391 71.25 600.406 69.8125 598.906 68.0312C597.438 66.25 596.391 64.2031 595.766 61.8906C595.172 59.5781 594.875 57.1719 594.875 54.6719ZM663.359 30.9531C666.516 30.9531 669.188 31.4531 671.375 32.4531C673.562 33.4219 675.297 34.8281 676.578 36.6719C678.703 34.6406 680.547 33.25 682.109 32.5C683.703 31.7188 685.078 31.3281 686.234 31.3281C687.578 31.3281 688.531 31.6719 689.094 32.3594C689.688 33.0156 689.984 33.7344 689.984 34.5156C689.984 35.1719 689.859 35.8281 689.609 36.4844C689.359 37.1406 688.953 37.7656 688.391 38.3594C687.609 37.8594 686.875 37.4688 686.188 37.1875C685.5 36.875 684.531 36.7188 683.281 36.7188C682.375 36.7188 681.422 36.9219 680.422 37.3281C679.453 37.7344 678.484 38.2188 677.516 38.7812C677.703 39.4062 677.859 40.1406 677.984 40.9844C678.141 41.8281 678.219 42.5781 678.219 43.2344C678.219 45.4844 677.766 47.625 676.859 49.6562C675.953 51.6562 674.719 53.4219 673.156 54.9531C671.594 56.4531 669.766 57.6562 667.672 58.5625C665.578 59.4375 663.328 59.875 660.922 59.875C660.328 59.875 659.766 59.875 659.234 59.875C658.703 59.8438 658.203 59.7969 657.734 59.7344C657.141 60.3906 656.609 61.0312 656.141 61.6562C655.734 62.1875 655.359 62.7656 655.016 63.3906C654.703 64.0156 654.547 64.5469 654.547 64.9844C654.547 65.4844 654.688 65.9062 654.969 66.25C655.281 66.5625 655.766 66.8594 656.422 67.1406C657.109 67.3906 658 67.625 659.094 67.8438C660.188 68.0625 661.516 68.2969 663.078 68.5469C665.828 69.0156 668.266 69.4844 670.391 69.9531C672.547 70.4219 674.359 71.0469 675.828 71.8281C677.328 72.5781 678.453 73.5625 679.203 74.7812C679.984 76.0312 680.375 77.6406 680.375 79.6094C680.375 81.1719 680.047 82.7188 679.391 84.25C678.734 85.8125 677.828 87.2969 676.672 88.7031C675.516 90.1094 674.141 91.4062 672.547 92.5938C670.953 93.8125 669.219 94.8594 667.344 95.7344C665.469 96.6094 663.484 97.2969 661.391 97.7969C659.297 98.2969 657.172 98.5469 655.016 98.5469C652.172 98.5469 649.797 98.2656 647.891 97.7031C646.016 97.1406 644.5 96.375 643.344 95.4062C642.219 94.4688 641.422 93.3906 640.953 92.1719C640.484 90.9531 640.25 89.6875 640.25 88.375C640.25 87.5 640.359 86.5625 640.578 85.5625C640.797 84.5938 641.25 83.5625 641.938 82.4688C642.625 81.4062 643.609 80.2969 644.891 79.1406C646.172 78.0156 647.875 76.875 650 75.7188L651.172 77.5469C649.766 78.4531 648.703 79.6406 647.984 81.1094C647.297 82.5781 646.953 84.2344 646.953 86.0781C646.953 87.6719 647.297 89.0156 647.984 90.1094C648.672 91.2031 649.578 92.0938 650.703 92.7812C651.828 93.5 653.109 94.0156 654.547 94.3281C656.016 94.6406 657.516 94.7969 659.047 94.7969C660.734 94.7969 662.484 94.5156 664.297 93.9531C666.109 93.4219 667.766 92.625 669.266 91.5625C670.766 90.5312 671.984 89.25 672.922 87.7188C673.891 86.2188 674.375 84.5156 674.375 82.6094C674.375 81.5469 674.219 80.6406 673.906 79.8906C673.625 79.1406 673.141 78.5 672.453 77.9688C671.766 77.4688 670.859 77.0312 669.734 76.6562C668.641 76.2812 667.281 75.9375 665.656 75.625L654.453 73.4688C652.828 73.1562 651.484 72.625 650.422 71.875C649.359 71.0938 648.828 69.9688 648.828 68.5C648.828 67.8125 649.016 67.0469 649.391 66.2031C649.797 65.3594 650.281 64.5156 650.844 63.6719C651.438 62.7969 652.062 61.9688 652.719 61.1875C653.406 60.375 654.031 59.6406 654.594 58.9844C653.344 58.7031 652.141 58.25 650.984 57.625C649.859 56.9688 648.859 56.1406 647.984 55.1406C647.109 54.1406 646.406 52.9688 645.875 51.625C645.375 50.2812 645.125 48.7344 645.125 46.9844C645.125 44.4844 645.594 42.25 646.531 40.2812C647.5 38.2812 648.812 36.5938 650.469 35.2188C652.125 33.8438 654.047 32.7969 656.234 32.0781C658.453 31.3281 660.828 30.9531 663.359 30.9531ZM661.438 33.625C659.938 33.625 658.609 33.9531 657.453 34.6094C656.297 35.2344 655.328 36.0938 654.547 37.1875C653.766 38.25 653.172 39.4688 652.766 40.8438C652.359 42.2188 652.156 43.6562 652.156 45.1562C652.156 46.5938 652.328 48.0312 652.672 49.4688C653.047 50.875 653.609 52.1406 654.359 53.2656C655.141 54.3906 656.109 55.2969 657.266 55.9844C658.453 56.6719 659.875 57.0156 661.531 57.0156C664.438 57.0156 666.703 56 668.328 53.9688C669.953 51.9375 670.766 49.1875 670.766 45.7188C670.766 44.4062 670.578 43.0469 670.203 41.6406C669.859 40.2031 669.297 38.8906 668.516 37.7031C667.766 36.5156 666.797 35.5469 665.609 34.7969C664.453 34.0156 663.062 33.625 661.438 33.625ZM709.109 30.9531C712.266 30.9531 714.938 31.4531 717.125 32.4531C719.312 33.4219 721.047 34.8281 722.328 36.6719C724.453 34.6406 726.297 33.25 727.859 32.5C729.453 31.7188 730.828 31.3281 731.984 31.3281C733.328 31.3281 734.281 31.6719 734.844 32.3594C735.438 33.0156 735.734 33.7344 735.734 34.5156C735.734 35.1719 735.609 35.8281 735.359 36.4844C735.109 37.1406 734.703 37.7656 734.141 38.3594C733.359 37.8594 732.625 37.4688 731.938 37.1875C731.25 36.875 730.281 36.7188 729.031 36.7188C728.125 36.7188 727.172 36.9219 726.172 37.3281C725.203 37.7344 724.234 38.2188 723.266 38.7812C723.453 39.4062 723.609 40.1406 723.734 40.9844C723.891 41.8281 723.969 42.5781 723.969 43.2344C723.969 45.4844 723.516 47.625 722.609 49.6562C721.703 51.6562 720.469 53.4219 718.906 54.9531C717.344 56.4531 715.516 57.6562 713.422 58.5625C711.328 59.4375 709.078 59.875 706.672 59.875C706.078 59.875 705.516 59.875 704.984 59.875C704.453 59.8438 703.953 59.7969 703.484 59.7344C702.891 60.3906 702.359 61.0312 701.891 61.6562C701.484 62.1875 701.109 62.7656 700.766 63.3906C700.453 64.0156 700.297 64.5469 700.297 64.9844C700.297 65.4844 700.438 65.9062 700.719 66.25C701.031 66.5625 701.516 66.8594 702.172 67.1406C702.859 67.3906 703.75 67.625 704.844 67.8438C705.938 68.0625 707.266 68.2969 708.828 68.5469C711.578 69.0156 714.016 69.4844 716.141 69.9531C718.297 70.4219 720.109 71.0469 721.578 71.8281C723.078 72.5781 724.203 73.5625 724.953 74.7812C725.734 76.0312 726.125 77.6406 726.125 79.6094C726.125 81.1719 725.797 82.7188 725.141 84.25C724.484 85.8125 723.578 87.2969 722.422 88.7031C721.266 90.1094 719.891 91.4062 718.297 92.5938C716.703 93.8125 714.969 94.8594 713.094 95.7344C711.219 96.6094 709.234 97.2969 707.141 97.7969C705.047 98.2969 702.922 98.5469 700.766 98.5469C697.922 98.5469 695.547 98.2656 693.641 97.7031C691.766 97.1406 690.25 96.375 689.094 95.4062C687.969 94.4688 687.172 93.3906 686.703 92.1719C686.234 90.9531 686 89.6875 686 88.375C686 87.5 686.109 86.5625 686.328 85.5625C686.547 84.5938 687 83.5625 687.688 82.4688C688.375 81.4062 689.359 80.2969 690.641 79.1406C691.922 78.0156 693.625 76.875 695.75 75.7188L696.922 77.5469C695.516 78.4531 694.453 79.6406 693.734 81.1094C693.047 82.5781 692.703 84.2344 692.703 86.0781C692.703 87.6719 693.047 89.0156 693.734 90.1094C694.422 91.2031 695.328 92.0938 696.453 92.7812C697.578 93.5 698.859 94.0156 700.297 94.3281C701.766 94.6406 703.266 94.7969 704.797 94.7969C706.484 94.7969 708.234 94.5156 710.047 93.9531C711.859 93.4219 713.516 92.625 715.016 91.5625C716.516 90.5312 717.734 89.25 718.672 87.7188C719.641 86.2188 720.125 84.5156 720.125 82.6094C720.125 81.5469 719.969 80.6406 719.656 79.8906C719.375 79.1406 718.891 78.5 718.203 77.9688C717.516 77.4688 716.609 77.0312 715.484 76.6562C714.391 76.2812 713.031 75.9375 711.406 75.625L700.203 73.4688C698.578 73.1562 697.234 72.625 696.172 71.875C695.109 71.0938 694.578 69.9688 694.578 68.5C694.578 67.8125 694.766 67.0469 695.141 66.2031C695.547 65.3594 696.031 64.5156 696.594 63.6719C697.188 62.7969 697.812 61.9688 698.469 61.1875C699.156 60.375 699.781 59.6406 700.344 58.9844C699.094 58.7031 697.891 58.25 696.734 57.625C695.609 56.9688 694.609 56.1406 693.734 55.1406C692.859 54.1406 692.156 52.9688 691.625 51.625C691.125 50.2812 690.875 48.7344 690.875 46.9844C690.875 44.4844 691.344 42.25 692.281 40.2812C693.25 38.2812 694.562 36.5938 696.219 35.2188C697.875 33.8438 699.797 32.7969 701.984 32.0781C704.203 31.3281 706.578 30.9531 709.109 30.9531ZM707.188 33.625C705.688 33.625 704.359 33.9531 703.203 34.6094C702.047 35.2344 701.078 36.0938 700.297 37.1875C699.516 38.25 698.922 39.4688 698.516 40.8438C698.109 42.2188 697.906 43.6562 697.906 45.1562C697.906 46.5938 698.078 48.0312 698.422 49.4688C698.797 50.875 699.359 52.1406 700.109 53.2656C700.891 54.3906 701.859 55.2969 703.016 55.9844C704.203 56.6719 705.625 57.0156 707.281 57.0156C710.188 57.0156 712.453 56 714.078 53.9688C715.703 51.9375 716.516 49.1875 716.516 45.7188C716.516 44.4062 716.328 43.0469 715.953 41.6406C715.609 40.2031 715.047 38.8906 714.266 37.7031C713.516 36.5156 712.547 35.5469 711.359 34.7969C710.203 34.0156 708.812 33.625 707.188 33.625Z" fill="#283870"/>
</g>
<defs>
<filter id="filter0_d_4_18" x="0.390625" y="0.15625" width="739.344" height="106.391" filterUnits="userSpaceOnUse" color-interpolation-filters="sRGB">
<feFlood flood-opacity="0" result="BackgroundImageFix"/>
<feColorMatrix in="SourceAlpha" type="matrix" values="0 0 0 0 0 0 0 0 0 0 0 0 0 0 0 0 0 0 127 0" result="hardAlpha"/>
<feOffset dy="4"/>
<feGaussianBlur stdDeviation="2"/>
<feComposite in2="hardAlpha" operator="out"/>
<feColorMatrix type="matrix" values="0 0 0 0 0 0 0 0 0 0 0 0 0 0 0 0 0 0 0.25 0"/>
<feBlend mode="normal" in2="BackgroundImageFix" result="effect1_dropShadow_4_18"/>
<feBlend mode="normal" in="SourceGraphic" in2="effect1_dropShadow_4_18" result="shape"/>
</filter>
</defs>
</svg>
