<svg width="36" height="18" viewBox="0 0 36 18" fill="none" xmlns="http://www.w3.org/2000/svg">
<path d="M2.23438 8.66797C2.23438 9.68359 2.37109 10.6602 2.64453 11.5977C2.92578 12.5352 3.32812 13.3672 3.85156 14.0938C4.38281 14.8125 5.03125 15.3906 5.79688 15.8281C6.5625 16.2578 7.43359 16.4727 8.41016 16.4727C9.34766 16.4727 10.1719 16.2852 10.8828 15.9102C11.6016 15.5352 12.1992 15.0234 12.6758 14.375C13.1523 13.7188 13.5117 12.957 13.7539 12.0898C13.9961 11.2148 14.1172 10.2773 14.1172 9.27734C14.1172 8.15234 13.9727 7.10156 13.6836 6.125C13.4023 5.14062 13.0039 4.28516 12.4883 3.55859C11.9727 2.83203 11.3555 2.26172 10.6367 1.84766C9.92578 1.43359 9.14453 1.22656 8.29297 1.22656C7.84766 1.22656 7.39062 1.27734 6.92188 1.37891C6.45312 1.47266 5.99219 1.63672 5.53906 1.87109C5.09375 2.09766 4.66797 2.39844 4.26172 2.77344C3.86328 3.14844 3.51172 3.61328 3.20703 4.16797C2.91016 4.71484 2.67188 5.35938 2.49219 6.10156C2.32031 6.84375 2.23438 7.69922 2.23438 8.66797ZM0.078125 8.91406C0.078125 7.6875 0.289062 6.55078 0.710938 5.50391C1.13281 4.45703 1.72656 3.55469 2.49219 2.79688C3.25781 2.03906 4.17578 1.44531 5.24609 1.01562C6.32422 0.585937 7.51562 0.371094 8.82031 0.371094C9.61719 0.371094 10.3555 0.480469 11.0352 0.699219C11.7148 0.910156 12.332 1.20703 12.8867 1.58984C13.4414 1.96484 13.9336 2.41016 14.3633 2.92578C14.793 3.44141 15.1523 4 15.4414 4.60156C15.7383 5.19531 15.9609 5.82422 16.1094 6.48828C16.2578 7.15234 16.332 7.81641 16.332 8.48047C16.332 9.78516 16.1211 10.9805 15.6992 12.0664C15.2773 13.1445 14.7031 14.0781 13.9766 14.8672C13.25 15.6484 12.4062 16.2578 11.4453 16.6953C10.4844 17.125 9.46484 17.3398 8.38672 17.3398C7.45703 17.3398 6.60547 17.2266 5.83203 17C5.06641 16.7812 4.375 16.4766 3.75781 16.0859C3.14062 15.6875 2.60156 15.2227 2.14062 14.6914C1.67969 14.1523 1.29688 13.5703 0.992188 12.9453C0.6875 12.3203 0.457031 11.668 0.300781 10.9883C0.152344 10.3008 0.078125 9.60938 0.078125 8.91406ZM35.9258 17C35.5195 17.0156 35.1406 17.0273 34.7891 17.0352C34.4375 17.0508 34.1016 17.0703 33.7812 17.0938C33.4609 17.1172 33.1484 17.1484 32.8438 17.1875C32.5469 17.2344 32.2461 17.3008 31.9414 17.3867C32.0117 16.9336 32.0859 16.4219 32.1641 15.8516C32.2422 15.2812 32.3125 14.707 32.375 14.1289C32.4375 13.543 32.4883 12.9727 32.5273 12.418C32.5664 11.8633 32.5859 11.375 32.5859 10.9531C32.5859 10.5469 32.5586 10.1484 32.5039 9.75781C32.4492 9.36719 32.3516 9.01953 32.2109 8.71484C32.0703 8.40234 31.875 8.15234 31.625 7.96484C31.375 7.77734 31.0508 7.68359 30.6523 7.68359C30.3867 7.68359 30.125 7.73438 29.8672 7.83594C29.6094 7.9375 29.3594 8.06641 29.1172 8.22266C28.875 8.37109 28.6445 8.54297 28.4258 8.73828C28.207 8.92578 28.0039 9.10547 27.8164 9.27734V9.62891C27.8164 10.0664 27.7969 10.5234 27.7578 11C27.7266 11.4766 27.6875 11.9492 27.6406 12.418C27.6016 12.8789 27.5625 13.3281 27.5234 13.7656C27.4922 14.1953 27.4766 14.5859 27.4766 14.9375C27.4766 15.2422 27.5 15.4922 27.5469 15.6875C27.6016 15.8828 27.6836 16.0391 27.793 16.1562C27.9102 16.2656 28.0586 16.3438 28.2383 16.3906C28.418 16.4297 28.6367 16.4492 28.8945 16.4492H29.5391V17C29.1328 17.0156 28.7539 17.0273 28.4023 17.0352C28.0508 17.0508 27.7148 17.0703 27.3945 17.0938C27.0742 17.1172 26.7617 17.1484 26.457 17.1875C26.1602 17.2344 25.8594 17.3008 25.5547 17.3867C25.625 16.9336 25.6992 16.4219 25.7773 15.8516C25.8555 15.2812 25.9258 14.707 25.9883 14.1289C26.0586 13.543 26.1133 12.9727 26.1523 12.418C26.1914 11.8633 26.2109 11.375 26.2109 10.9531C26.2109 10.5469 26.1836 10.1484 26.1289 9.75781C26.082 9.36719 25.9844 9.01953 25.8359 8.71484C25.6953 8.40234 25.4961 8.15234 25.2383 7.96484C24.9883 7.77734 24.6641 7.68359 24.2656 7.68359C23.9922 7.68359 23.7188 7.73828 23.4453 7.84766C23.1797 7.95703 22.9219 8.09766 22.6719 8.26953C22.4297 8.43359 22.1953 8.61719 21.9688 8.82031C21.7422 9.01562 21.5312 9.19922 21.3359 9.37109C21.3047 9.74609 21.2773 10.1406 21.2539 10.5547C21.2305 10.9609 21.207 11.3672 21.1836 11.7734C21.168 12.1797 21.1523 12.5742 21.1367 12.957C21.1289 13.3398 21.125 13.6953 21.125 14.0234C21.125 14.5312 21.1367 14.9414 21.1602 15.2539C21.1836 15.5664 21.2422 15.8125 21.3359 15.9922C21.4297 16.1719 21.5703 16.293 21.7578 16.3555C21.9531 16.418 22.2188 16.4492 22.5547 16.4492H23.1641V17H22.9414C22.207 17 21.5352 17.0273 20.9258 17.082C20.3242 17.1367 19.7422 17.2383 19.1797 17.3867C19.3594 16.2461 19.5 15.0742 19.6016 13.8711C19.7031 12.6602 19.7539 11.4219 19.7539 10.1562C19.7539 9.85156 19.7383 9.55078 19.707 9.25391C19.6836 8.95703 19.6094 8.69531 19.4844 8.46875C19.3594 8.23438 19.168 8.04688 18.9102 7.90625C18.6523 7.75781 18.293 7.68359 17.832 7.68359H17.6211V7.10938C17.9727 7.09375 18.293 7.07812 18.582 7.0625C18.8789 7.03906 19.1719 7.00781 19.4609 6.96875C19.7578 6.92188 20.0664 6.86328 20.3867 6.79297C20.707 6.71484 21.0703 6.61328 21.4766 6.48828C21.4062 6.83984 21.332 7.21484 21.2539 7.61328C21.1836 8.00391 21.1289 8.36328 21.0898 8.69141C21.4883 8.32422 21.8594 8.00391 22.2031 7.73047C22.5547 7.45703 22.8945 7.23047 23.2227 7.05078C23.5586 6.86328 23.8945 6.72266 24.2305 6.62891C24.5664 6.53516 24.9219 6.48828 25.2969 6.48828C25.5078 6.48828 25.7344 6.51562 25.9766 6.57031C26.2188 6.625 26.4531 6.72656 26.6797 6.875C26.9062 7.01562 27.1094 7.21875 27.2891 7.48438C27.4688 7.74219 27.6055 8.08203 27.6992 8.50391C28.0742 8.16797 28.4258 7.875 28.7539 7.625C29.082 7.36719 29.4023 7.15625 29.7148 6.99219C30.0352 6.82031 30.3555 6.69531 30.6758 6.61719C30.9961 6.53125 31.3398 6.48828 31.707 6.48828C31.9492 6.48828 32.2148 6.52734 32.5039 6.60547C32.793 6.67578 33.0625 6.82422 33.3125 7.05078C33.5625 7.27734 33.7734 7.59766 33.9453 8.01172C34.1172 8.41797 34.2031 8.95703 34.2031 9.62891C34.2031 10.0664 34.1836 10.5234 34.1445 11C34.1133 11.4766 34.0742 11.9492 34.0273 12.418C33.9883 12.8789 33.9492 13.3281 33.9102 13.7656C33.8789 14.1953 33.8633 14.5859 33.8633 14.9375C33.8633 15.2422 33.8867 15.4922 33.9336 15.6875C33.9883 15.8828 34.0703 16.0391 34.1797 16.1562C34.2969 16.2656 34.4453 16.3438 34.625 16.3906C34.8047 16.4297 35.0234 16.4492 35.2812 16.4492H35.9258V17Z" fill="#283870"/>
<path d="M2.64453 11.5977L1.6845 11.8777L1.6867 11.885L2.64453 11.5977ZM3.85156 14.0938L3.04013 14.6783L3.04739 14.6881L3.85156 14.0938ZM5.79688 15.8281L5.30072 16.6964L5.30746 16.7002L5.79688 15.8281ZM10.8828 15.9102L10.4202 15.0236L10.4163 15.0257L10.8828 15.9102ZM12.6758 14.375L13.4816 14.9672L13.4849 14.9626L12.6758 14.375ZM13.7539 12.0898L14.7171 12.3588L14.7177 12.3566L13.7539 12.0898ZM13.6836 6.125L12.722 6.39973L12.7247 6.40883L13.6836 6.125ZM10.6367 1.84766L10.1334 2.71179L10.1375 2.71416L10.6367 1.84766ZM6.92188 1.37891L7.11799 2.35949L7.12582 2.35792L7.13363 2.35623L6.92188 1.37891ZM5.53906 1.87109L5.99253 2.76239L5.99849 2.75931L5.53906 1.87109ZM4.26172 2.77344L3.58341 2.0386L3.57635 2.04524L4.26172 2.77344ZM3.20703 4.16797L2.33054 3.68652L2.32818 3.69088L3.20703 4.16797ZM2.49219 6.10156L1.52022 5.86624L1.51797 5.87595L2.49219 6.10156ZM5.24609 1.01562L4.87586 0.0866819L4.87354 0.0876162L5.24609 1.01562ZM11.0352 0.699219L10.7288 1.65119L10.7388 1.65428L11.0352 0.699219ZM12.8867 1.58984L12.3187 2.41291L12.3266 2.41829L12.8867 1.58984ZM15.4414 4.60156L14.5401 5.03467L14.5435 5.04175L14.547 5.04878L15.4414 4.60156ZM15.6992 12.0664L16.6305 12.4308L16.6313 12.4285L15.6992 12.0664ZM13.9766 14.8672L14.7088 15.5482L14.7122 15.5446L13.9766 14.8672ZM11.4453 16.6953L11.8535 17.6082L11.8597 17.6054L11.4453 16.6953ZM5.83203 17L6.11315 16.0403L6.10675 16.0385L5.83203 17ZM3.75781 16.0859L3.21542 16.9261L3.22301 16.9309L3.75781 16.0859ZM2.14062 14.6914L1.38057 15.3413L1.3853 15.3468L2.14062 14.6914ZM0.300781 10.9883L-0.676782 11.1993L-0.673798 11.2123L0.300781 10.9883ZM1.23438 8.66797C1.23438 9.77454 1.38352 10.8456 1.68453 11.8777L3.60453 11.3177C3.35867 10.4747 3.23438 9.59265 3.23438 8.66797H1.23438ZM1.6867 11.885C1.99695 12.9191 2.44598 13.8535 3.04019 14.6783L4.66293 13.5092C4.21027 12.8809 3.85462 12.1512 3.60236 11.3103L1.6867 11.885ZM3.04739 14.6881C3.66003 15.517 4.41286 16.189 5.30074 16.6964L6.29301 14.9599C5.64964 14.5922 5.10559 14.108 4.65574 13.4994L3.04739 14.6881ZM5.30746 16.7002C6.23882 17.2229 7.28185 17.4727 8.41016 17.4727V15.4727C7.58534 15.4727 6.88618 15.2927 6.28629 14.9561L5.30746 16.7002ZM8.41016 17.4727C9.48314 17.4727 10.4724 17.2572 11.3494 16.7947L10.4163 15.0257C9.87135 15.3131 9.21218 15.4727 8.41016 15.4727V17.4727ZM11.3454 16.7967C12.1985 16.3517 12.9139 15.7396 13.4816 14.9672L11.87 13.7828C11.4846 14.3072 11.0047 14.7187 10.4202 15.0236L11.3454 16.7967ZM13.4849 14.9626C14.0386 14.2001 14.4464 13.328 14.7171 12.3588L12.7908 11.8209C12.577 12.5861 12.2661 13.2374 11.8666 13.7874L13.4849 14.9626ZM14.7177 12.3566C14.9862 11.3864 15.1172 10.3585 15.1172 9.27734H13.1172C13.1172 10.1962 13.006 11.0433 12.7901 11.8231L14.7177 12.3566ZM15.1172 9.27734C15.1172 8.0662 14.9615 6.91895 14.6425 5.84117L12.7247 6.40883C12.9838 7.28417 13.1172 8.23849 13.1172 9.27734H15.1172ZM14.6451 5.85028C14.3373 4.773 13.8939 3.81139 13.3038 2.97985L11.6728 4.13734C12.1139 4.75892 12.4674 5.50825 12.7221 6.39972L14.6451 5.85028ZM13.3038 2.97985C12.711 2.14454 11.9887 1.47244 11.1359 0.981157L10.1375 2.71416C10.7223 3.051 11.2343 3.51953 11.6728 4.13734L13.3038 2.97985ZM11.14 0.983533C10.2708 0.477275 9.31488 0.226562 8.29297 0.226562V2.22656C8.97419 2.22656 9.5808 2.38991 10.1334 2.71178L11.14 0.983533ZM8.29297 0.226562C7.77124 0.226562 7.24314 0.286095 6.71012 0.401583L7.13363 2.35623C7.53811 2.26859 7.92408 2.22656 8.29297 2.22656V0.226562ZM6.72576 0.398326C6.15941 0.511596 5.61022 0.708438 5.07964 0.982876L5.99849 2.75931C6.37416 2.565 6.74684 2.43372 7.11799 2.35949L6.72576 0.398326ZM5.08561 0.979816C4.55035 1.25214 4.05001 1.60796 3.58344 2.03863L4.94 3.50824C5.28593 3.18892 5.63715 2.94318 5.99252 2.76237L5.08561 0.979816ZM3.57635 2.04524C3.09082 2.50221 2.67791 3.05416 2.33055 3.68652L4.08351 4.64941C4.34553 4.1724 4.63574 3.79467 4.94708 3.50164L3.57635 2.04524ZM2.32818 3.69088C1.98181 4.32891 1.71593 5.05808 1.52027 5.86626L3.46411 6.33687C3.62782 5.66067 3.8385 5.10077 4.08588 4.64506L2.32818 3.69088ZM1.51797 5.87595C1.32507 6.70892 1.23438 7.64271 1.23438 8.66797H3.23438C3.23438 7.75573 3.31555 6.97858 3.46641 6.32717L1.51797 5.87595ZM1.07812 8.91406C1.07812 7.80441 1.26846 6.79582 1.63846 5.87768L-0.216581 5.13013C-0.690337 6.30575 -0.921875 7.57059 -0.921875 8.91406H1.07812ZM1.63846 5.87768C2.01187 4.95106 2.5315 4.16498 3.19566 3.5076L1.78872 2.08615C0.921621 2.9444 0.253755 3.963 -0.216581 5.13013L1.63846 5.87768ZM3.19566 3.5076C3.86001 2.85002 4.66318 2.32722 5.61865 1.94363L4.87354 0.0876162C3.68839 0.563406 2.65561 1.2281 1.78872 2.08615L3.19566 3.5076ZM5.61632 1.94457C6.56293 1.5673 7.62675 1.37109 8.82031 1.37109V-0.628906C7.4045 -0.628906 6.08551 -0.395421 4.87586 0.0866848L5.61632 1.94457ZM8.82031 1.37109C9.52512 1.37109 10.1589 1.46771 10.7288 1.65113L11.3415 -0.252696C10.5521 -0.506769 9.70925 -0.628906 8.82031 -0.628906V1.37109ZM10.7388 1.65428C11.3272 1.8369 11.8519 2.09071 12.3187 2.41287L13.4547 0.766818C12.8122 0.323356 12.1025 -0.0165828 11.3316 -0.255845L10.7388 1.65428ZM12.3266 2.41829C12.8033 2.7405 13.2254 3.12239 13.5951 3.56597L15.1315 2.2856C14.6418 1.69793 14.0796 1.18919 13.4468 0.761401L12.3266 2.41829ZM13.5951 3.56597C13.9723 4.01867 14.2869 4.50778 14.5401 5.03467L16.3427 4.16845C16.0178 3.49222 15.6136 2.86414 15.1315 2.2856L13.5951 3.56597ZM14.547 5.04878C14.8066 5.56796 15.0023 6.11975 15.1335 6.70643L17.0853 6.27014C16.9196 5.52868 16.67 4.82266 16.3358 4.15435L14.547 5.04878ZM15.1335 6.70643C15.2663 7.30065 15.332 7.89158 15.332 8.48047H17.332C17.332 7.74123 17.2493 7.00404 17.0853 6.27014L15.1335 6.70643ZM15.332 8.48047C15.332 9.67607 15.139 10.7468 14.7671 11.7043L16.6313 12.4285C17.1031 11.2141 17.332 9.89424 17.332 8.48047H15.332ZM14.768 11.702C14.3877 12.6738 13.877 13.4991 13.2409 14.1898L14.7122 15.5446C15.5293 14.6572 16.167 13.6153 16.6305 12.4308L14.768 11.702ZM13.2443 14.1862C12.6066 14.8719 11.8706 15.4029 11.031 15.7852L11.8597 17.6054C12.9419 17.1127 13.8934 16.425 14.7088 15.5482L13.2443 14.1862ZM11.0371 15.7824C10.2078 16.1533 9.32767 16.3398 8.38672 16.3398V18.3398C9.60202 18.3398 10.761 18.0967 11.8535 17.6082L11.0371 15.7824ZM8.38672 16.3398C7.53791 16.3398 6.78253 16.2364 6.11315 16.0403L5.55091 17.9597C6.42841 18.2167 7.37615 18.3398 8.38672 18.3398V16.3398ZM6.10675 16.0385C5.42472 15.8436 4.8222 15.5761 4.29261 15.241L3.22301 16.9309C3.9278 17.377 4.70809 17.7189 5.55731 17.9615L6.10675 16.0385ZM4.30018 15.2458C3.75881 14.8963 3.29228 14.4928 2.89595 14.0361L1.3853 15.3468C1.91085 15.9525 2.52244 16.4787 3.21544 16.9261L4.30018 15.2458ZM2.90066 14.0415C2.49367 13.5656 2.15788 13.0544 1.89106 12.5071L0.0933111 13.3835C0.435868 14.0862 0.865705 14.7391 1.38059 15.3413L2.90066 14.0415ZM1.89106 12.5071C1.61976 11.9506 1.41464 11.3701 1.27536 10.7642L-0.673798 11.2123C-0.500582 11.9658 -0.244764 12.69 0.0933111 13.3835L1.89106 12.5071ZM1.27826 10.7772C1.14462 10.1583 1.07812 9.53761 1.07812 8.91406H-0.921875C-0.921875 9.68114 -0.839932 10.4433 -0.676695 11.1993L1.27826 10.7772ZM35.9258 17L35.9642 17.9993L36.9258 17.9623V17H35.9258ZM34.7891 17.0352L34.7668 16.0354L34.7557 16.0356L34.7447 16.0361L34.7891 17.0352ZM32.8438 17.1875L32.7166 16.1956L32.7022 16.1975L32.6878 16.1997L32.8438 17.1875ZM31.9414 17.3867L30.9532 17.2334L30.7145 18.7718L32.2129 18.3492L31.9414 17.3867ZM32.375 14.1289L33.3692 14.2364L33.3694 14.235L32.375 14.1289ZM32.2109 8.71484L31.299 9.12523L31.303 9.1339L32.2109 8.71484ZM29.1172 8.22266L29.6397 9.07526L29.6496 9.06922L29.6593 9.06295L29.1172 8.22266ZM28.4258 8.73828L29.0766 9.49754L29.0843 9.49096L29.0918 9.48422L28.4258 8.73828ZM27.8164 9.27734L27.1407 8.54019L26.8164 8.83744V9.27734H27.8164ZM27.7578 11L26.7612 10.9183L26.7605 10.9264L26.76 10.9346L27.7578 11ZM27.6406 12.418L26.6456 12.3185L26.6448 12.326L26.6442 12.3335L27.6406 12.418ZM27.5234 13.7656L26.5274 13.6767L26.5267 13.6849L26.5261 13.6931L27.5234 13.7656ZM27.5469 15.6875L26.5745 15.9209L26.5789 15.9391L26.5839 15.9571L27.5469 15.6875ZM27.793 16.1562L27.0619 16.8386L27.0854 16.8638L27.1107 16.8873L27.793 16.1562ZM28.2383 16.3906L27.9859 17.3582L28.0058 17.3634L28.0259 17.3678L28.2383 16.3906ZM29.5391 16.4492H30.5391V15.4492H29.5391V16.4492ZM29.5391 17L29.5775 17.9993L30.5391 17.9623V17H29.5391ZM28.4023 17.0352L28.3801 16.0354L28.369 16.0356L28.3579 16.0361L28.4023 17.0352ZM26.457 17.1875L26.3299 16.1956L26.3154 16.1975L26.3011 16.1997L26.457 17.1875ZM25.5547 17.3867L24.5665 17.2334L24.3278 18.7718L25.8261 18.3492L25.5547 17.3867ZM25.9883 14.1289L24.9953 14.0098L24.9941 14.0214L25.9883 14.1289ZM26.1289 9.75781L25.136 9.87696L25.1372 9.88672L25.1386 9.89646L26.1289 9.75781ZM25.8359 8.71484L24.924 9.12521L24.9303 9.13911L24.9369 9.15281L25.8359 8.71484ZM25.2383 7.96484L24.6383 8.76484L24.6442 8.76926L24.6501 8.77358L25.2383 7.96484ZM23.4453 7.84766L23.0739 6.91913L23.0646 6.92298L23.4453 7.84766ZM22.6719 8.26953L23.2327 9.09747L23.2384 9.09357L22.6719 8.26953ZM21.9688 8.82031L22.6217 9.57772L22.6291 9.57137L22.6363 9.56488L21.9688 8.82031ZM21.3359 9.37109L20.6753 8.62038L20.3729 8.88654L20.3394 9.28805L21.3359 9.37109ZM21.2539 10.5547L22.2522 10.6123L22.2523 10.6112L21.2539 10.5547ZM21.1836 11.7734L20.1853 11.7158L20.1847 11.7254L20.1843 11.735L21.1836 11.7734ZM21.1367 12.957L20.1376 12.9162L20.1371 12.9264L20.1369 12.9366L21.1367 12.957ZM21.7578 16.3555L21.4416 17.3042L21.453 17.3079L21.7578 16.3555ZM23.1641 16.4492H24.1641V15.4492H23.1641V16.4492ZM23.1641 17V18H24.1641V17H23.1641ZM20.9258 17.082L20.8364 16.086L20.8352 16.0861L20.9258 17.082ZM19.1797 17.3867L18.1919 17.2311L17.9535 18.7445L19.4348 18.3536L19.1797 17.3867ZM19.6016 13.8711L20.598 13.9552L20.5981 13.9547L19.6016 13.8711ZM19.707 9.25391L18.7101 9.33261L18.7112 9.34562L18.7125 9.35859L19.707 9.25391ZM19.4844 8.46875L18.602 8.93934L18.6054 8.94561L18.6088 8.95183L19.4844 8.46875ZM18.9102 7.90625L18.4112 8.77287L18.4212 8.77862L18.4313 8.78415L18.9102 7.90625ZM17.6211 7.68359H16.6211V8.68359H17.6211V7.68359ZM17.6211 7.10938L17.5767 6.11036L16.6211 6.15283V7.10938H17.6211ZM18.582 7.0625L18.636 8.06104L18.6484 8.06037L18.6607 8.0594L18.582 7.0625ZM19.4609 6.96875L19.5949 7.95974L19.6059 7.95825L19.6169 7.95651L19.4609 6.96875ZM20.3867 6.79297L20.6011 7.76971L20.6124 7.76723L20.6237 7.76449L20.3867 6.79297ZM21.4766 6.48828L22.4571 6.6844L22.7862 5.03904L21.1825 5.5325L21.4766 6.48828ZM21.2539 7.61328L20.2726 7.42087L20.2711 7.42849L20.2697 7.43613L21.2539 7.61328ZM21.0898 8.69141L20.0969 8.57319L19.7768 11.2613L21.7675 9.42676L21.0898 8.69141ZM22.2031 7.73047L21.5891 6.94107L21.5806 6.94787L22.2031 7.73047ZM23.2227 7.05078L23.703 7.92791L23.71 7.92398L23.2227 7.05078ZM26.6797 6.875L26.1317 7.71146L26.1419 7.71818L26.1523 7.72464L26.6797 6.875ZM27.2891 7.48438L26.4607 8.04474L26.4687 8.05617L27.2891 7.48438ZM27.6992 8.50391L26.723 8.72084L27.0937 10.3889L28.3665 9.24874L27.6992 8.50391ZM28.7539 7.625L29.3599 8.42043L29.3659 8.41592L29.3717 8.41132L28.7539 7.625ZM29.7148 6.99219L30.1797 7.87762L30.1877 7.87335L29.7148 6.99219ZM30.6758 6.61719L30.9127 7.58871L30.9239 7.586L30.9349 7.58303L30.6758 6.61719ZM32.5039 6.60547L32.243 7.57083L32.2552 7.57414L32.2676 7.57714L32.5039 6.60547ZM33.9453 8.01172L33.0217 8.39511L33.0243 8.40136L33.9453 8.01172ZM34.1445 11L33.1479 10.9183L33.1472 10.9264L33.1467 10.9346L34.1445 11ZM34.0273 12.418L33.0323 12.3185L33.0316 12.326L33.0309 12.3335L34.0273 12.418ZM33.9102 13.7656L32.9141 13.6767L32.9134 13.6849L32.9128 13.6931L33.9102 13.7656ZM33.9336 15.6875L32.9612 15.9209L32.9656 15.9391L32.9706 15.9571L33.9336 15.6875ZM34.1797 16.1562L33.4486 16.8386L33.4722 16.8638L33.4974 16.8873L34.1797 16.1562ZM34.625 16.3906L34.3726 17.3582L34.3925 17.3634L34.4126 17.3678L34.625 16.3906ZM35.9258 16.4492H36.9258V15.4492H35.9258V16.4492ZM35.8873 16.0007C35.4857 16.0162 35.1122 16.0277 34.7668 16.0354L34.8113 18.0349C35.169 18.027 35.5534 18.0151 35.9642 17.9993L35.8873 16.0007ZM34.7447 16.0361C34.3845 16.0522 34.039 16.0722 33.7083 16.0964L33.8542 18.0911C34.1642 18.0684 34.4905 18.0494 34.8335 18.0342L34.7447 16.0361ZM33.7083 16.0964C33.3707 16.1211 33.0401 16.1541 32.7166 16.1956L32.9709 18.1794C33.2568 18.1427 33.5512 18.1133 33.8542 18.0911L33.7083 16.0964ZM32.6878 16.1997C32.3499 16.2531 32.0106 16.3282 31.6699 16.4243L32.2129 18.3492C32.4816 18.2734 32.7438 18.2157 32.9997 18.1753L32.6878 16.1997ZM32.9296 17.5401C33.001 17.0798 33.0761 16.5621 33.1548 15.9873L31.1733 15.7158C31.0958 16.2817 31.0224 16.7874 30.9532 17.2334L32.9296 17.5401ZM33.1548 15.9873C33.2342 15.4075 33.3057 14.8238 33.3692 14.2364L31.3808 14.0214C31.3193 14.5902 31.2501 15.155 31.1733 15.7158L33.1548 15.9873ZM33.3694 14.235C33.4331 13.6378 33.4849 13.0555 33.5249 12.4882L31.5298 12.3477C31.4916 12.8898 31.4419 13.4481 31.3806 14.0228L33.3694 14.235ZM33.5249 12.4882C33.5651 11.917 33.5859 11.4044 33.5859 10.9531H31.5859C31.5859 11.3456 31.5677 11.8096 31.5298 12.3477L33.5249 12.4882ZM33.5859 10.9531C33.5859 10.5019 33.5556 10.0571 33.4942 9.61916L31.5136 9.89646C31.5616 10.2398 31.5859 10.5919 31.5859 10.9531H33.5859ZM33.4942 9.61916C33.4283 9.14808 33.307 8.70339 33.1189 8.29579L31.303 9.1339C31.3961 9.33567 31.4701 9.5863 31.5136 9.89646L33.4942 9.61916ZM33.1229 8.30448C32.9197 7.85307 32.623 7.46335 32.225 7.16484L31.025 8.76484C31.127 8.84134 31.2209 8.95161 31.299 9.12521L33.1229 8.30448ZM32.225 7.16484C31.7594 6.81562 31.2071 6.68359 30.6523 6.68359V8.68359C30.8944 8.68359 30.9906 8.73907 31.025 8.76484L32.225 7.16484ZM30.6523 6.68359C30.2559 6.68359 29.8701 6.76 29.5007 6.90553L30.2337 8.76635C30.3799 8.70875 30.5176 8.68359 30.6523 8.68359V6.68359ZM29.5007 6.90553C29.1791 7.03221 28.8704 7.19179 28.5751 7.38236L29.6593 9.06295C29.8483 8.94103 30.0397 8.84279 30.2337 8.76635L29.5007 6.90553ZM28.5946 7.37005C28.2999 7.55069 28.0216 7.75855 27.7598 7.99234L29.0918 9.48422C29.2674 9.32739 29.4501 9.1915 29.6397 9.07526L28.5946 7.37005ZM27.775 7.97902C27.5489 8.17283 27.3374 8.3599 27.1407 8.54019L28.4921 10.0145C28.6705 9.85103 28.8652 9.67874 29.0766 9.49754L27.775 7.97902ZM26.8164 9.27734V9.62891H28.8164V9.27734H26.8164ZM26.8164 9.62891C26.8164 10.0368 26.7982 10.4664 26.7612 10.9183L28.7545 11.0817C28.7956 10.5804 28.8164 10.096 28.8164 9.62891H26.8164ZM26.76 10.9346C26.7294 11.3999 26.6913 11.8612 26.6456 12.3185L28.6357 12.5175C28.6837 12.0372 28.7237 11.5532 28.7557 11.0654L26.76 10.9346ZM26.6442 12.3335C26.6053 12.793 26.5663 13.2408 26.5274 13.6767L28.5195 13.8546C28.5587 13.4155 28.5979 12.9648 28.6371 12.5024L26.6442 12.3335ZM26.5261 13.6931C26.4934 14.1418 26.4766 14.5571 26.4766 14.9375H28.4766C28.4766 14.6148 28.4909 14.2489 28.5208 13.8382L26.5261 13.6931ZM26.4766 14.9375C26.4766 15.2848 26.5024 15.6207 26.5745 15.9209L28.5193 15.4541C28.4976 15.3637 28.4766 15.1995 28.4766 14.9375H26.4766ZM26.5839 15.9571C26.6706 16.2667 26.8182 16.5774 27.0619 16.8386L28.524 15.4739C28.549 15.5007 28.5325 15.4989 28.5098 15.4179L26.5839 15.9571ZM27.1107 16.8873C27.3673 17.1268 27.6711 17.2761 27.9859 17.3582L28.4907 15.423C28.4671 15.4169 28.4577 15.4118 28.4579 15.412C28.458 15.412 28.46 15.4131 28.4634 15.4155C28.4668 15.4178 28.4709 15.4211 28.4753 15.4252L27.1107 16.8873ZM28.0259 17.3678C28.2969 17.4267 28.5914 17.4492 28.8945 17.4492V15.4492C28.682 15.4492 28.539 15.4326 28.4507 15.4134L28.0259 17.3678ZM28.8945 17.4492H29.5391V15.4492H28.8945V17.4492ZM28.5391 16.4492V17H30.5391V16.4492H28.5391ZM29.5006 16.0007C29.099 16.0162 28.7255 16.0277 28.3801 16.0354L28.4246 18.0349C28.7823 18.027 29.1667 18.0151 29.5775 17.9993L29.5006 16.0007ZM28.3579 16.0361C27.9977 16.0522 27.6522 16.0722 27.3216 16.0964L27.4675 18.0911C27.7775 18.0684 28.1038 18.0494 28.4467 18.0342L28.3579 16.0361ZM27.3216 16.0964C26.9839 16.1211 26.6534 16.1541 26.3299 16.1956L26.5842 18.1794C26.8701 18.1427 27.1645 18.1133 27.4675 18.0911L27.3216 16.0964ZM26.3011 16.1997C25.9632 16.2531 25.6239 16.3282 25.2832 16.4243L25.8261 18.3492C26.0949 18.2734 26.3571 18.2157 26.613 18.1753L26.3011 16.1997ZM26.5429 17.5401C26.6143 17.0798 26.6894 16.5621 26.7681 15.9873L24.7866 15.7158C24.7091 16.2817 24.6357 16.7874 24.5665 17.2334L26.5429 17.5401ZM26.7681 15.9873C26.8475 15.4075 26.919 14.8238 26.9825 14.2364L24.9941 14.0214C24.9326 14.5902 24.8634 15.155 24.7866 15.7158L26.7681 15.9873ZM26.9812 14.2481C27.0533 13.6468 27.1096 13.0602 27.1499 12.4882L25.1548 12.3477C25.117 12.8851 25.0639 13.4391 24.9954 14.0098L26.9812 14.2481ZM27.1499 12.4882C27.1901 11.917 27.2109 11.4044 27.2109 10.9531H25.2109C25.2109 11.3456 25.1927 11.8096 25.1548 12.3477L27.1499 12.4882ZM27.2109 10.9531C27.2109 10.5019 27.1806 10.0571 27.1192 9.61916L25.1386 9.89646C25.1866 10.2398 25.2109 10.5919 25.2109 10.9531H27.2109ZM27.1218 9.63867C27.0637 9.15474 26.9394 8.69653 26.7349 8.27687L24.9369 9.15281C25.0294 9.34253 25.1004 9.57964 25.136 9.87696L27.1218 9.63867ZM26.7479 8.30448C26.5413 7.84557 26.2355 7.45361 25.8265 7.15611L24.6501 8.77358C24.7567 8.85108 24.8493 8.95912 24.924 9.12521L26.7479 8.30448ZM25.8383 7.16484C25.3727 6.81562 24.8204 6.68359 24.2656 6.68359V8.68359C24.5077 8.68359 24.6039 8.73907 24.6383 8.76484L25.8383 7.16484ZM24.2656 6.68359C23.8554 6.68359 23.4563 6.76623 23.0739 6.91918L23.8167 8.77613C23.9812 8.71034 24.1289 8.68359 24.2656 8.68359V6.68359ZM23.0646 6.92298C22.7301 7.0607 22.4103 7.23584 22.1053 7.44549L23.2384 9.09357C23.4335 8.95948 23.6293 8.85336 23.8261 8.77233L23.0646 6.92298ZM22.111 7.44161C21.83 7.63201 21.5601 7.84366 21.3012 8.07574L22.6363 9.56488C22.8306 9.39071 23.0294 9.23518 23.2327 9.09745L22.111 7.44161ZM21.3158 8.0629C21.087 8.26011 20.8735 8.44596 20.6753 8.62038L21.9966 10.1218C22.189 9.95248 22.3973 9.77114 22.6217 9.57772L21.3158 8.0629ZM20.3394 9.28805C20.3073 9.67272 20.2794 10.0761 20.2555 10.4982L22.2523 10.6112C22.2753 10.2051 22.302 9.81947 22.3325 9.45414L20.3394 9.28805ZM20.2556 10.4971C20.2555 10.4979 20.2555 10.4987 20.2554 10.4995C20.2554 10.5003 20.2553 10.5011 20.2553 10.5019C20.2552 10.5026 20.2552 10.5034 20.2552 10.5042C20.2551 10.505 20.2551 10.5058 20.255 10.5066C20.255 10.5074 20.2549 10.5082 20.2549 10.509C20.2548 10.5098 20.2548 10.5106 20.2547 10.5114C20.2547 10.5122 20.2547 10.513 20.2546 10.5138C20.2546 10.5145 20.2545 10.5153 20.2545 10.5161C20.2544 10.5169 20.2544 10.5177 20.2543 10.5185C20.2543 10.5193 20.2542 10.5201 20.2542 10.5209C20.2541 10.5217 20.2541 10.5225 20.2541 10.5233C20.254 10.5241 20.254 10.5249 20.2539 10.5257C20.2539 10.5264 20.2538 10.5272 20.2538 10.528C20.2537 10.5288 20.2537 10.5296 20.2536 10.5304C20.2536 10.5312 20.2536 10.532 20.2535 10.5328C20.2535 10.5336 20.2534 10.5344 20.2534 10.5352C20.2533 10.536 20.2533 10.5368 20.2532 10.5376C20.2532 10.5384 20.2531 10.5391 20.2531 10.5399C20.253 10.5407 20.253 10.5415 20.253 10.5423C20.2529 10.5431 20.2529 10.5439 20.2528 10.5447C20.2528 10.5455 20.2527 10.5463 20.2527 10.5471C20.2526 10.5479 20.2526 10.5487 20.2525 10.5495C20.2525 10.5503 20.2525 10.551 20.2524 10.5518C20.2524 10.5526 20.2523 10.5534 20.2523 10.5542C20.2522 10.555 20.2522 10.5558 20.2521 10.5566C20.2521 10.5574 20.252 10.5582 20.252 10.559C20.2519 10.5598 20.2519 10.5606 20.2519 10.5614C20.2518 10.5622 20.2518 10.5629 20.2517 10.5637C20.2517 10.5645 20.2516 10.5653 20.2516 10.5661C20.2515 10.5669 20.2515 10.5677 20.2514 10.5685C20.2514 10.5693 20.2514 10.5701 20.2513 10.5709C20.2513 10.5717 20.2512 10.5725 20.2512 10.5733C20.2511 10.5741 20.2511 10.5748 20.251 10.5756C20.251 10.5764 20.2509 10.5772 20.2509 10.578C20.2509 10.5788 20.2508 10.5796 20.2508 10.5804C20.2507 10.5812 20.2507 10.582 20.2506 10.5828C20.2506 10.5836 20.2505 10.5844 20.2505 10.5852C20.2504 10.586 20.2504 10.5868 20.2503 10.5875C20.2503 10.5883 20.2503 10.5891 20.2502 10.5899C20.2502 10.5907 20.2501 10.5915 20.2501 10.5923C20.25 10.5931 20.25 10.5939 20.2499 10.5947C20.2499 10.5955 20.2498 10.5963 20.2498 10.5971C20.2498 10.5979 20.2497 10.5987 20.2497 10.5994C20.2496 10.6002 20.2496 10.601 20.2495 10.6018C20.2495 10.6026 20.2494 10.6034 20.2494 10.6042C20.2493 10.605 20.2493 10.6058 20.2492 10.6066C20.2492 10.6074 20.2492 10.6082 20.2491 10.609C20.2491 10.6098 20.249 10.6106 20.249 10.6113C20.2489 10.6121 20.2489 10.6129 20.2488 10.6137C20.2488 10.6145 20.2487 10.6153 20.2487 10.6161C20.2487 10.6169 20.2486 10.6177 20.2486 10.6185C20.2485 10.6193 20.2485 10.6201 20.2484 10.6209C20.2484 10.6217 20.2483 10.6225 20.2483 10.6233C20.2482 10.624 20.2482 10.6248 20.2482 10.6256C20.2481 10.6264 20.2481 10.6272 20.248 10.628C20.248 10.6288 20.2479 10.6296 20.2479 10.6304C20.2478 10.6312 20.2478 10.632 20.2477 10.6328C20.2477 10.6336 20.2476 10.6344 20.2476 10.6352C20.2476 10.6359 20.2475 10.6367 20.2475 10.6375C20.2474 10.6383 20.2474 10.6391 20.2473 10.6399C20.2473 10.6407 20.2472 10.6415 20.2472 10.6423C20.2471 10.6431 20.2471 10.6439 20.2471 10.6447C20.247 10.6455 20.247 10.6463 20.2469 10.6471C20.2469 10.6478 20.2468 10.6486 20.2468 10.6494C20.2467 10.6502 20.2467 10.651 20.2466 10.6518C20.2466 10.6526 20.2465 10.6534 20.2465 10.6542C20.2465 10.655 20.2464 10.6558 20.2464 10.6566C20.2463 10.6574 20.2463 10.6582 20.2462 10.659C20.2462 10.6597 20.2461 10.6605 20.2461 10.6613C20.246 10.6621 20.246 10.6629 20.246 10.6637C20.2459 10.6645 20.2459 10.6653 20.2458 10.6661C20.2458 10.6669 20.2457 10.6677 20.2457 10.6685C20.2456 10.6693 20.2456 10.6701 20.2455 10.6709C20.2455 10.6717 20.2454 10.6724 20.2454 10.6732C20.2454 10.674 20.2453 10.6748 20.2453 10.6756C20.2452 10.6764 20.2452 10.6772 20.2451 10.678C20.2451 10.6788 20.245 10.6796 20.245 10.6804C20.2449 10.6812 20.2449 10.682 20.2449 10.6828C20.2448 10.6836 20.2448 10.6843 20.2447 10.6851C20.2447 10.6859 20.2446 10.6867 20.2446 10.6875C20.2445 10.6883 20.2445 10.6891 20.2444 10.6899C20.2444 10.6907 20.2444 10.6915 20.2443 10.6923C20.2443 10.6931 20.2442 10.6939 20.2442 10.6947C20.2441 10.6955 20.2441 10.6962 20.244 10.697C20.244 10.6978 20.2439 10.6986 20.2439 10.6994C20.2438 10.7002 20.2438 10.701 20.2438 10.7018C20.2437 10.7026 20.2437 10.7034 20.2436 10.7042C20.2436 10.705 20.2435 10.7058 20.2435 10.7066C20.2434 10.7074 20.2434 10.7082 20.2433 10.7089C20.2433 10.7097 20.2433 10.7105 20.2432 10.7113C20.2432 10.7121 20.2431 10.7129 20.2431 10.7137C20.243 10.7145 20.243 10.7153 20.2429 10.7161C20.2429 10.7169 20.2428 10.7177 20.2428 10.7185C20.2427 10.7193 20.2427 10.7201 20.2427 10.7208C20.2426 10.7216 20.2426 10.7224 20.2425 10.7232C20.2425 10.724 20.2424 10.7248 20.2424 10.7256C20.2423 10.7264 20.2423 10.7272 20.2422 10.728C20.2422 10.7288 20.2422 10.7296 20.2421 10.7304C20.2421 10.7312 20.242 10.732 20.242 10.7327C20.2419 10.7335 20.2419 10.7343 20.2418 10.7351C20.2418 10.7359 20.2417 10.7367 20.2417 10.7375C20.2417 10.7383 20.2416 10.7391 20.2416 10.7399C20.2415 10.7407 20.2415 10.7415 20.2414 10.7423C20.2414 10.7431 20.2413 10.7439 20.2413 10.7446C20.2412 10.7454 20.2412 10.7462 20.2411 10.747C20.2411 10.7478 20.2411 10.7486 20.241 10.7494C20.241 10.7502 20.2409 10.751 20.2409 10.7518C20.2408 10.7526 20.2408 10.7534 20.2407 10.7542C20.2407 10.755 20.2406 10.7558 20.2406 10.7566C20.2406 10.7573 20.2405 10.7581 20.2405 10.7589C20.2404 10.7597 20.2404 10.7605 20.2403 10.7613C20.2403 10.7621 20.2402 10.7629 20.2402 10.7637C20.2401 10.7645 20.2401 10.7653 20.24 10.7661C20.24 10.7669 20.24 10.7677 20.2399 10.7685C20.2399 10.7692 20.2398 10.77 20.2398 10.7708C20.2397 10.7716 20.2397 10.7724 20.2396 10.7732C20.2396 10.774 20.2395 10.7748 20.2395 10.7756C20.2395 10.7764 20.2394 10.7772 20.2394 10.778C20.2393 10.7788 20.2393 10.7796 20.2392 10.7804C20.2392 10.7811 20.2391 10.7819 20.2391 10.7827C20.239 10.7835 20.239 10.7843 20.2389 10.7851C20.2389 10.7859 20.2389 10.7867 20.2388 10.7875C20.2388 10.7883 20.2387 10.7891 20.2387 10.7899C20.2386 10.7907 20.2386 10.7915 20.2385 10.7923C20.2385 10.7931 20.2384 10.7938 20.2384 10.7946C20.2384 10.7954 20.2383 10.7962 20.2383 10.797C20.2382 10.7978 20.2382 10.7986 20.2381 10.7994C20.2381 10.8002 20.238 10.801 20.238 10.8018C20.2379 10.8026 20.2379 10.8034 20.2379 10.8042C20.2378 10.805 20.2378 10.8057 20.2377 10.8065C20.2377 10.8073 20.2376 10.8081 20.2376 10.8089C20.2375 10.8097 20.2375 10.8105 20.2374 10.8113C20.2374 10.8121 20.2373 10.8129 20.2373 10.8137C20.2373 10.8145 20.2372 10.8153 20.2372 10.8161C20.2371 10.8169 20.2371 10.8176 20.237 10.8184C20.237 10.8192 20.2369 10.82 20.2369 10.8208C20.2368 10.8216 20.2368 10.8224 20.2368 10.8232C20.2367 10.824 20.2367 10.8248 20.2366 10.8256C20.2366 10.8264 20.2365 10.8272 20.2365 10.828C20.2364 10.8288 20.2364 10.8295 20.2363 10.8303C20.2363 10.8311 20.2362 10.8319 20.2362 10.8327C20.2362 10.8335 20.2361 10.8343 20.2361 10.8351C20.236 10.8359 20.236 10.8367 20.2359 10.8375C20.2359 10.8383 20.2358 10.8391 20.2358 10.8399C20.2357 10.8407 20.2357 10.8415 20.2357 10.8422C20.2356 10.843 20.2356 10.8438 20.2355 10.8446C20.2355 10.8454 20.2354 10.8462 20.2354 10.847C20.2353 10.8478 20.2353 10.8486 20.2352 10.8494C20.2352 10.8502 20.2352 10.851 20.2351 10.8518C20.2351 10.8526 20.235 10.8534 20.235 10.8541C20.2349 10.8549 20.2349 10.8557 20.2348 10.8565C20.2348 10.8573 20.2347 10.8581 20.2347 10.8589C20.2346 10.8597 20.2346 10.8605 20.2346 10.8613C20.2345 10.8621 20.2345 10.8629 20.2344 10.8637C20.2344 10.8645 20.2343 10.8653 20.2343 10.866C20.2342 10.8668 20.2342 10.8676 20.2341 10.8684C20.2341 10.8692 20.2341 10.87 20.234 10.8708C20.234 10.8716 20.2339 10.8724 20.2339 10.8732C20.2338 10.874 20.2338 10.8748 20.2337 10.8756C20.2337 10.8764 20.2336 10.8772 20.2336 10.878C20.2335 10.8787 20.2335 10.8795 20.2335 10.8803C20.2334 10.8811 20.2334 10.8819 20.2333 10.8827C20.2333 10.8835 20.2332 10.8843 20.2332 10.8851C20.2331 10.8859 20.2331 10.8867 20.233 10.8875C20.233 10.8883 20.233 10.8891 20.2329 10.8899C20.2329 10.8906 20.2328 10.8914 20.2328 10.8922C20.2327 10.893 20.2327 10.8938 20.2326 10.8946C20.2326 10.8954 20.2325 10.8962 20.2325 10.897C20.2324 10.8978 20.2324 10.8986 20.2324 10.8994C20.2323 10.9002 20.2323 10.901 20.2322 10.9018C20.2322 10.9025 20.2321 10.9033 20.2321 10.9041C20.232 10.9049 20.232 10.9057 20.2319 10.9065C20.2319 10.9073 20.2319 10.9081 20.2318 10.9089C20.2318 10.9097 20.2317 10.9105 20.2317 10.9113C20.2316 10.9121 20.2316 10.9129 20.2315 10.9137C20.2315 10.9144 20.2314 10.9152 20.2314 10.916C20.2314 10.9168 20.2313 10.9176 20.2313 10.9184C20.2312 10.9192 20.2312 10.92 20.2311 10.9208C20.2311 10.9216 20.231 10.9224 20.231 10.9232C20.2309 10.924 20.2309 10.9248 20.2308 10.9256C20.2308 10.9264 20.2308 10.9271 20.2307 10.9279C20.2307 10.9287 20.2306 10.9295 20.2306 10.9303C20.2305 10.9311 20.2305 10.9319 20.2304 10.9327C20.2304 10.9335 20.2303 10.9343 20.2303 10.9351C20.2303 10.9359 20.2302 10.9367 20.2302 10.9375C20.2301 10.9383 20.2301 10.939 20.23 10.9398C20.23 10.9406 20.2299 10.9414 20.2299 10.9422C20.2298 10.943 20.2298 10.9438 20.2297 10.9446C20.2297 10.9454 20.2297 10.9462 20.2296 10.947C20.2296 10.9478 20.2295 10.9486 20.2295 10.9494C20.2294 10.9502 20.2294 10.9509 20.2293 10.9517C20.2293 10.9525 20.2292 10.9533 20.2292 10.9541C20.2292 10.9549 20.2291 10.9557 20.2291 10.9565C20.229 10.9573 20.229 10.9581 20.2289 10.9589C20.2289 10.9597 20.2288 10.9605 20.2288 10.9613C20.2287 10.9621 20.2287 10.9629 20.2286 10.9636C20.2286 10.9644 20.2286 10.9652 20.2285 10.966C20.2285 10.9668 20.2284 10.9676 20.2284 10.9684C20.2283 10.9692 20.2283 10.97 20.2282 10.9708C20.2282 10.9716 20.2281 10.9724 20.2281 10.9732C20.2281 10.974 20.228 10.9748 20.228 10.9755C20.2279 10.9763 20.2279 10.9771 20.2278 10.9779C20.2278 10.9787 20.2277 10.9795 20.2277 10.9803C20.2276 10.9811 20.2276 10.9819 20.2276 10.9827C20.2275 10.9835 20.2275 10.9843 20.2274 10.9851C20.2274 10.9859 20.2273 10.9867 20.2273 10.9874C20.2272 10.9882 20.2272 10.989 20.2271 10.9898C20.2271 10.9906 20.227 10.9914 20.227 10.9922C20.227 10.993 20.2269 10.9938 20.2269 10.9946C20.2268 10.9954 20.2268 10.9962 20.2267 10.997C20.2267 10.9978 20.2266 10.9986 20.2266 10.9993C20.2265 11.0001 20.2265 11.0009 20.2265 11.0017C20.2264 11.0025 20.2264 11.0033 20.2263 11.0041C20.2263 11.0049 20.2262 11.0057 20.2262 11.0065C20.2261 11.0073 20.2261 11.0081 20.226 11.0089C20.226 11.0097 20.2259 11.0105 20.2259 11.0113C20.2259 11.012 20.2258 11.0128 20.2258 11.0136C20.2257 11.0144 20.2257 11.0152 20.2256 11.016C20.2256 11.0168 20.2255 11.0176 20.2255 11.0184C20.2254 11.0192 20.2254 11.02 20.2254 11.0208C20.2253 11.0216 20.2253 11.0224 20.2252 11.0232C20.2252 11.0239 20.2251 11.0247 20.2251 11.0255C20.225 11.0263 20.225 11.0271 20.2249 11.0279C20.2249 11.0287 20.2249 11.0295 20.2248 11.0303C20.2248 11.0311 20.2247 11.0319 20.2247 11.0327C20.2246 11.0335 20.2246 11.0343 20.2245 11.0351C20.2245 11.0358 20.2244 11.0366 20.2244 11.0374C20.2243 11.0382 20.2243 11.039 20.2243 11.0398C20.2242 11.0406 20.2242 11.0414 20.2241 11.0422C20.2241 11.043 20.224 11.0438 20.224 11.0446C20.2239 11.0454 20.2239 11.0462 20.2238 11.047C20.2238 11.0478 20.2238 11.0485 20.2237 11.0493C20.2237 11.0501 20.2236 11.0509 20.2236 11.0517C20.2235 11.0525 20.2235 11.0533 20.2234 11.0541C20.2234 11.0549 20.2233 11.0557 20.2233 11.0565C20.2232 11.0573 20.2232 11.0581 20.2232 11.0589C20.2231 11.0597 20.2231 11.0604 20.223 11.0612C20.223 11.062 20.2229 11.0628 20.2229 11.0636C20.2228 11.0644 20.2228 11.0652 20.2227 11.066C20.2227 11.0668 20.2227 11.0676 20.2226 11.0684C20.2226 11.0692 20.2225 11.07 20.2225 11.0708C20.2224 11.0716 20.2224 11.0723 20.2223 11.0731C20.2223 11.0739 20.2222 11.0747 20.2222 11.0755C20.2221 11.0763 20.2221 11.0771 20.2221 11.0779C20.222 11.0787 20.222 11.0795 20.2219 11.0803C20.2219 11.0811 20.2218 11.0819 20.2218 11.0827C20.2217 11.0835 20.2217 11.0842 20.2216 11.085C20.2216 11.0858 20.2216 11.0866 20.2215 11.0874C20.2215 11.0882 20.2214 11.089 20.2214 11.0898C20.2213 11.0906 20.2213 11.0914 20.2212 11.0922C20.2212 11.093 20.2211 11.0938 20.2211 11.0946C20.2211 11.0954 20.221 11.0962 20.221 11.0969C20.2209 11.0977 20.2209 11.0985 20.2208 11.0993C20.2208 11.1001 20.2207 11.1009 20.2207 11.1017C20.2206 11.1025 20.2206 11.1033 20.2205 11.1041C20.2205 11.1049 20.2205 11.1057 20.2204 11.1065C20.2204 11.1073 20.2203 11.1081 20.2203 11.1088C20.2202 11.1096 20.2202 11.1104 20.2201 11.1112C20.2201 11.112 20.22 11.1128 20.22 11.1136C20.22 11.1144 20.2199 11.1152 20.2199 11.116C20.2198 11.1168 20.2198 11.1176 20.2197 11.1184C20.2197 11.1192 20.2196 11.12 20.2196 11.1207C20.2195 11.1215 20.2195 11.1223 20.2194 11.1231C20.2194 11.1239 20.2194 11.1247 20.2193 11.1255C20.2193 11.1263 20.2192 11.1271 20.2192 11.1279C20.2191 11.1287 20.2191 11.1295 20.219 11.1303C20.219 11.1311 20.2189 11.1319 20.2189 11.1327C20.2189 11.1334 20.2188 11.1342 20.2188 11.135C20.2187 11.1358 20.2187 11.1366 20.2186 11.1374C20.2186 11.1382 20.2185 11.139 20.2185 11.1398C20.2184 11.1406 20.2184 11.1414 20.2184 11.1422C20.2183 11.143 20.2183 11.1438 20.2182 11.1446C20.2182 11.1453 20.2181 11.1461 20.2181 11.1469C20.218 11.1477 20.218 11.1485 20.2179 11.1493C20.2179 11.1501 20.2178 11.1509 20.2178 11.1517C20.2178 11.1525 20.2177 11.1533 20.2177 11.1541C20.2176 11.1549 20.2176 11.1557 20.2175 11.1565C20.2175 11.1572 20.2174 11.158 20.2174 11.1588C20.2173 11.1596 20.2173 11.1604 20.2173 11.1612C20.2172 11.162 20.2172 11.1628 20.2171 11.1636C20.2171 11.1644 20.217 11.1652 20.217 11.166C20.2169 11.1668 20.2169 11.1676 20.2168 11.1684C20.2168 11.1691 20.2167 11.1699 20.2167 11.1707C20.2167 11.1715 20.2166 11.1723 20.2166 11.1731C20.2165 11.1739 20.2165 11.1747 20.2164 11.1755C20.2164 11.1763 20.2163 11.1771 20.2163 11.1779C20.2162 11.1787 20.2162 11.1795 20.2162 11.1803C20.2161 11.1811 20.2161 11.1818 20.216 11.1826C20.216 11.1834 20.2159 11.1842 20.2159 11.185C20.2158 11.1858 20.2158 11.1866 20.2157 11.1874C20.2157 11.1882 20.2156 11.189 20.2156 11.1898C20.2156 11.1906 20.2155 11.1914 20.2155 11.1922C20.2154 11.193 20.2154 11.1937 20.2153 11.1945C20.2153 11.1953 20.2152 11.1961 20.2152 11.1969C20.2151 11.1977 20.2151 11.1985 20.2151 11.1993C20.215 11.2001 20.215 11.2009 20.2149 11.2017C20.2149 11.2025 20.2148 11.2033 20.2148 11.2041C20.2147 11.2049 20.2147 11.2056 20.2146 11.2064C20.2146 11.2072 20.2146 11.208 20.2145 11.2088C20.2145 11.2096 20.2144 11.2104 20.2144 11.2112C20.2143 11.212 20.2143 11.2128 20.2142 11.2136C20.2142 11.2144 20.2141 11.2152 20.2141 11.216C20.214 11.2168 20.214 11.2175 20.214 11.2183C20.2139 11.2191 20.2139 11.2199 20.2138 11.2207C20.2138 11.2215 20.2137 11.2223 20.2137 11.2231C20.2136 11.2239 20.2136 11.2247 20.2135 11.2255C20.2135 11.2263 20.2135 11.2271 20.2134 11.2279C20.2134 11.2287 20.2133 11.2295 20.2133 11.2302C20.2132 11.231 20.2132 11.2318 20.2131 11.2326C20.2131 11.2334 20.213 11.2342 20.213 11.235C20.2129 11.2358 20.2129 11.2366 20.2129 11.2374C20.2128 11.2382 20.2128 11.239 20.2127 11.2398C20.2127 11.2406 20.2126 11.2414 20.2126 11.2421C20.2125 11.2429 20.2125 11.2437 20.2124 11.2445C20.2124 11.2453 20.2124 11.2461 20.2123 11.2469C20.2123 11.2477 20.2122 11.2485 20.2122 11.2493C20.2121 11.2501 20.2121 11.2509 20.212 11.2517C20.212 11.2525 20.2119 11.2533 20.2119 11.254C20.2118 11.2548 20.2118 11.2556 20.2118 11.2564C20.2117 11.2572 20.2117 11.258 20.2116 11.2588C20.2116 11.2596 20.2115 11.2604 20.2115 11.2612C20.2114 11.262 20.2114 11.2628 20.2113 11.2636C20.2113 11.2644 20.2113 11.2652 20.2112 11.266C20.2112 11.2667 20.2111 11.2675 20.2111 11.2683C20.211 11.2691 20.211 11.2699 20.2109 11.2707C20.2109 11.2715 20.2108 11.2723 20.2108 11.2731C20.2108 11.2739 20.2107 11.2747 20.2107 11.2755C20.2106 11.2763 20.2106 11.2771 20.2105 11.2779C20.2105 11.2786 20.2104 11.2794 20.2104 11.2802C20.2103 11.281 20.2103 11.2818 20.2102 11.2826C20.2102 11.2834 20.2102 11.2842 20.2101 11.285C20.2101 11.2858 20.21 11.2866 20.21 11.2874C20.2099 11.2882 20.2099 11.289 20.2098 11.2898C20.2098 11.2905 20.2097 11.2913 20.2097 11.2921C20.2097 11.2929 20.2096 11.2937 20.2096 11.2945C20.2095 11.2953 20.2095 11.2961 20.2094 11.2969C20.2094 11.2977 20.2093 11.2985 20.2093 11.2993C20.2092 11.3001 20.2092 11.3009 20.2091 11.3017C20.2091 11.3024 20.2091 11.3032 20.209 11.304C20.209 11.3048 20.2089 11.3056 20.2089 11.3064C20.2088 11.3072 20.2088 11.308 20.2087 11.3088C20.2087 11.3096 20.2086 11.3104 20.2086 11.3112C20.2086 11.312 20.2085 11.3128 20.2085 11.3136C20.2084 11.3144 20.2084 11.3151 20.2083 11.3159C20.2083 11.3167 20.2082 11.3175 20.2082 11.3183C20.2081 11.3191 20.2081 11.3199 20.2081 11.3207C20.208 11.3215 20.208 11.3223 20.2079 11.3231C20.2079 11.3239 20.2078 11.3247 20.2078 11.3255C20.2077 11.3263 20.2077 11.327 20.2076 11.3278C20.2076 11.3286 20.2075 11.3294 20.2075 11.3302C20.2075 11.331 20.2074 11.3318 20.2074 11.3326C20.2073 11.3334 20.2073 11.3342 20.2072 11.335C20.2072 11.3358 20.2071 11.3366 20.2071 11.3374C20.207 11.3382 20.207 11.3389 20.207 11.3397C20.2069 11.3405 20.2069 11.3413 20.2068 11.3421C20.2068 11.3429 20.2067 11.3437 20.2067 11.3445C20.2066 11.3453 20.2066 11.3461 20.2065 11.3469C20.2065 11.3477 20.2064 11.3485 20.2064 11.3493C20.2064 11.3501 20.2063 11.3509 20.2063 11.3516C20.2062 11.3524 20.2062 11.3532 20.2061 11.354C20.2061 11.3548 20.206 11.3556 20.206 11.3564C20.2059 11.3572 20.2059 11.358 20.2059 11.3588C20.2058 11.3596 20.2058 11.3604 20.2057 11.3612C20.2057 11.362 20.2056 11.3628 20.2056 11.3635C20.2055 11.3643 20.2055 11.3651 20.2054 11.3659C20.2054 11.3667 20.2053 11.3675 20.2053 11.3683C20.2053 11.3691 20.2052 11.3699 20.2052 11.3707C20.2051 11.3715 20.2051 11.3723 20.205 11.3731C20.205 11.3739 20.2049 11.3747 20.2049 11.3754C20.2048 11.3762 20.2048 11.377 20.2048 11.3778C20.2047 11.3786 20.2047 11.3794 20.2046 11.3802C20.2046 11.381 20.2045 11.3818 20.2045 11.3826C20.2044 11.3834 20.2044 11.3842 20.2043 11.385C20.2043 11.3858 20.2043 11.3866 20.2042 11.3873C20.2042 11.3881 20.2041 11.3889 20.2041 11.3897C20.204 11.3905 20.204 11.3913 20.2039 11.3921C20.2039 11.3929 20.2038 11.3937 20.2038 11.3945C20.2037 11.3953 20.2037 11.3961 20.2037 11.3969C20.2036 11.3977 20.2036 11.3985 20.2035 11.3993C20.2035 11.4 20.2034 11.4008 20.2034 11.4016C20.2033 11.4024 20.2033 11.4032 20.2032 11.404C20.2032 11.4048 20.2032 11.4056 20.2031 11.4064C20.2031 11.4072 20.203 11.408 20.203 11.4088C20.2029 11.4096 20.2029 11.4104 20.2028 11.4112C20.2028 11.4119 20.2027 11.4127 20.2027 11.4135C20.2026 11.4143 20.2026 11.4151 20.2026 11.4159C20.2025 11.4167 20.2025 11.4175 20.2024 11.4183C20.2024 11.4191 20.2023 11.4199 20.2023 11.4207C20.2022 11.4215 20.2022 11.4223 20.2021 11.4231C20.2021 11.4238 20.2021 11.4246 20.202 11.4254C20.202 11.4262 20.2019 11.427 20.2019 11.4278C20.2018 11.4286 20.2018 11.4294 20.2017 11.4302C20.2017 11.431 20.2016 11.4318 20.2016 11.4326C20.2016 11.4334 20.2015 11.4342 20.2015 11.435C20.2014 11.4358 20.2014 11.4365 20.2013 11.4373C20.2013 11.4381 20.2012 11.4389 20.2012 11.4397C20.2011 11.4405 20.2011 11.4413 20.201 11.4421C20.201 11.4429 20.201 11.4437 20.2009 11.4445C20.2009 11.4453 20.2008 11.4461 20.2008 11.4469C20.2007 11.4477 20.2007 11.4484 20.2006 11.4492C20.2006 11.45 20.2005 11.4508 20.2005 11.4516C20.2005 11.4524 20.2004 11.4532 20.2004 11.454C20.2003 11.4548 20.2003 11.4556 20.2002 11.4564C20.2002 11.4572 20.2001 11.458 20.2001 11.4588C20.2 11.4596 20.2 11.4603 20.1999 11.4611C20.1999 11.4619 20.1999 11.4627 20.1998 11.4635C20.1998 11.4643 20.1997 11.4651 20.1997 11.4659C20.1996 11.4667 20.1996 11.4675 20.1995 11.4683C20.1995 11.4691 20.1994 11.4699 20.1994 11.4707C20.1994 11.4715 20.1993 11.4722 20.1993 11.473C20.1992 11.4738 20.1992 11.4746 20.1991 11.4754C20.1991 11.4762 20.199 11.477 20.199 11.4778C20.1989 11.4786 20.1989 11.4794 20.1988 11.4802C20.1988 11.481 20.1988 11.4818 20.1987 11.4826C20.1987 11.4834 20.1986 11.4842 20.1986 11.4849C20.1985 11.4857 20.1985 11.4865 20.1984 11.4873C20.1984 11.4881 20.1983 11.4889 20.1983 11.4897C20.1983 11.4905 20.1982 11.4913 20.1982 11.4921C20.1981 11.4929 20.1981 11.4937 20.198 11.4945C20.198 11.4953 20.1979 11.4961 20.1979 11.4968C20.1978 11.4976 20.1978 11.4984 20.1978 11.4992C20.1977 11.5 20.1977 11.5008 20.1976 11.5016C20.1976 11.5024 20.1975 11.5032 20.1975 11.504C20.1974 11.5048 20.1974 11.5056 20.1973 11.5064C20.1973 11.5072 20.1972 11.508 20.1972 11.5087C20.1972 11.5095 20.1971 11.5103 20.1971 11.5111C20.197 11.5119 20.197 11.5127 20.1969 11.5135C20.1969 11.5143 20.1968 11.5151 20.1968 11.5159C20.1967 11.5167 20.1967 11.5175 20.1967 11.5183C20.1966 11.5191 20.1966 11.5199 20.1965 11.5207C20.1965 11.5214 20.1964 11.5222 20.1964 11.523C20.1963 11.5238 20.1963 11.5246 20.1962 11.5254C20.1962 11.5262 20.1961 11.527 20.1961 11.5278C20.1961 11.5286 20.196 11.5294 20.196 11.5302C20.1959 11.531 20.1959 11.5318 20.1958 11.5326C20.1958 11.5333 20.1957 11.5341 20.1957 11.5349C20.1956 11.5357 20.1956 11.5365 20.1956 11.5373C20.1955 11.5381 20.1955 11.5389 20.1954 11.5397C20.1954 11.5405 20.1953 11.5413 20.1953 11.5421C20.1952 11.5429 20.1952 11.5437 20.1951 11.5445C20.1951 11.5452 20.195 11.546 20.195 11.5468C20.195 11.5476 20.1949 11.5484 20.1949 11.5492C20.1948 11.55 20.1948 11.5508 20.1947 11.5516C20.1947 11.5524 20.1946 11.5532 20.1946 11.554C20.1945 11.5548 20.1945 11.5556 20.1945 11.5564C20.1944 11.5571 20.1944 11.5579 20.1943 11.5587C20.1943 11.5595 20.1942 11.5603 20.1942 11.5611C20.1941 11.5619 20.1941 11.5627 20.194 11.5635C20.194 11.5643 20.194 11.5651 20.1939 11.5659C20.1939 11.5667 20.1938 11.5675 20.1938 11.5683C20.1937 11.5691 20.1937 11.5698 20.1936 11.5706C20.1936 11.5714 20.1935 11.5722 20.1935 11.573C20.1934 11.5738 20.1934 11.5746 20.1934 11.5754C20.1933 11.5762 20.1933 11.577 20.1932 11.5778C20.1932 11.5786 20.1931 11.5794 20.1931 11.5802C20.193 11.581 20.193 11.5817 20.1929 11.5825C20.1929 11.5833 20.1929 11.5841 20.1928 11.5849C20.1928 11.5857 20.1927 11.5865 20.1927 11.5873C20.1926 11.5881 20.1926 11.5889 20.1925 11.5897C20.1925 11.5905 20.1924 11.5913 20.1924 11.5921C20.1923 11.5929 20.1923 11.5936 20.1923 11.5944C20.1922 11.5952 20.1922 11.596 20.1921 11.5968C20.1921 11.5976 20.192 11.5984 20.192 11.5992C20.1919 11.6 20.1919 11.6008 20.1918 11.6016C20.1918 11.6024 20.1918 11.6032 20.1917 11.604C20.1917 11.6048 20.1916 11.6056 20.1916 11.6063C20.1915 11.6071 20.1915 11.6079 20.1914 11.6087C20.1914 11.6095 20.1913 11.6103 20.1913 11.6111C20.1913 11.6119 20.1912 11.6127 20.1912 11.6135C20.1911 11.6143 20.1911 11.6151 20.191 11.6159C20.191 11.6167 20.1909 11.6175 20.1909 11.6182C20.1908 11.619 20.1908 11.6198 20.1907 11.6206C20.1907 11.6214 20.1907 11.6222 20.1906 11.623C20.1906 11.6238 20.1905 11.6246 20.1905 11.6254C20.1904 11.6262 20.1904 11.627 20.1903 11.6278C20.1903 11.6286 20.1902 11.6294 20.1902 11.6301C20.1902 11.6309 20.1901 11.6317 20.1901 11.6325C20.19 11.6333 20.19 11.6341 20.1899 11.6349C20.1899 11.6357 20.1898 11.6365 20.1898 11.6373C20.1897 11.6381 20.1897 11.6389 20.1896 11.6397C20.1896 11.6405 20.1896 11.6413 20.1895 11.642C20.1895 11.6428 20.1894 11.6436 20.1894 11.6444C20.1893 11.6452 20.1893 11.646 20.1892 11.6468C20.1892 11.6476 20.1891 11.6484 20.1891 11.6492C20.1891 11.65 20.189 11.6508 20.189 11.6516C20.1889 11.6524 20.1889 11.6532 20.1888 11.654C20.1888 11.6547 20.1887 11.6555 20.1887 11.6563C20.1886 11.6571 20.1886 11.6579 20.1885 11.6587C20.1885 11.6595 20.1885 11.6603 20.1884 11.6611C20.1884 11.6619 20.1883 11.6627 20.1883 11.6635C20.1882 11.6643 20.1882 11.6651 20.1881 11.6659C20.1881 11.6666 20.188 11.6674 20.188 11.6682C20.188 11.669 20.1879 11.6698 20.1879 11.6706C20.1878 11.6714 20.1878 11.6722 20.1877 11.673C20.1877 11.6738 20.1876 11.6746 20.1876 11.6754C20.1875 11.6762 20.1875 11.677 20.1875 11.6778C20.1874 11.6785 20.1874 11.6793 20.1873 11.6801C20.1873 11.6809 20.1872 11.6817 20.1872 11.6825C20.1871 11.6833 20.1871 11.6841 20.187 11.6849C20.187 11.6857 20.1869 11.6865 20.1869 11.6873C20.1869 11.6881 20.1868 11.6889 20.1868 11.6897C20.1867 11.6905 20.1867 11.6912 20.1866 11.692C20.1866 11.6928 20.1865 11.6936 20.1865 11.6944C20.1864 11.6952 20.1864 11.696 20.1864 11.6968C20.1863 11.6976 20.1863 11.6984 20.1862 11.6992C20.1862 11.7 20.1861 11.7008 20.1861 11.7016C20.186 11.7024 20.186 11.7031 20.1859 11.7039C20.1859 11.7047 20.1858 11.7055 20.1858 11.7063C20.1858 11.7071 20.1857 11.7079 20.1857 11.7087C20.1856 11.7095 20.1856 11.7103 20.1855 11.7111C20.1855 11.7119 20.1854 11.7127 20.1854 11.7135C20.1853 11.7143 20.1853 11.715 20.1853 11.7158L22.1819 11.831C22.182 11.8302 22.182 11.8294 22.1821 11.8287C22.1821 11.8279 22.1822 11.8271 22.1822 11.8263C22.1823 11.8255 22.1823 11.8247 22.1823 11.8239C22.1824 11.8231 22.1824 11.8223 22.1825 11.8215C22.1825 11.8207 22.1826 11.8199 22.1826 11.8191C22.1827 11.8183 22.1827 11.8175 22.1828 11.8168C22.1828 11.816 22.1828 11.8152 22.1829 11.8144C22.1829 11.8136 22.183 11.8128 22.183 11.812C22.1831 11.8112 22.1831 11.8104 22.1832 11.8096C22.1832 11.8088 22.1833 11.808 22.1833 11.8072C22.1834 11.8064 22.1834 11.8056 22.1834 11.8048C22.1835 11.8041 22.1835 11.8033 22.1836 11.8025C22.1836 11.8017 22.1837 11.8009 22.1837 11.8001C22.1838 11.7993 22.1838 11.7985 22.1839 11.7977C22.1839 11.7969 22.1839 11.7961 22.184 11.7953C22.184 11.7945 22.1841 11.7937 22.1841 11.7929C22.1842 11.7922 22.1842 11.7914 22.1843 11.7906C22.1843 11.7898 22.1844 11.789 22.1844 11.7882C22.1845 11.7874 22.1845 11.7866 22.1845 11.7858C22.1846 11.785 22.1846 11.7842 22.1847 11.7834C22.1847 11.7826 22.1848 11.7818 22.1848 11.781C22.1849 11.7803 22.1849 11.7795 22.185 11.7787C22.185 11.7779 22.185 11.7771 22.1851 11.7763C22.1851 11.7755 22.1852 11.7747 22.1852 11.7739C22.1853 11.7731 22.1853 11.7723 22.1854 11.7715C22.1854 11.7707 22.1855 11.7699 22.1855 11.7691C22.1856 11.7684 22.1856 11.7676 22.1856 11.7668C22.1857 11.766 22.1857 11.7652 22.1858 11.7644C22.1858 11.7636 22.1859 11.7628 22.1859 11.762C22.186 11.7612 22.186 11.7604 22.1861 11.7596C22.1861 11.7588 22.1861 11.758 22.1862 11.7572C22.1862 11.7564 22.1863 11.7557 22.1863 11.7549C22.1864 11.7541 22.1864 11.7533 22.1865 11.7525C22.1865 11.7517 22.1866 11.7509 22.1866 11.7501C22.1866 11.7493 22.1867 11.7485 22.1867 11.7477C22.1868 11.7469 22.1868 11.7461 22.1869 11.7453C22.1869 11.7445 22.187 11.7438 22.187 11.743C22.1871 11.7422 22.1871 11.7414 22.1872 11.7406C22.1872 11.7398 22.1872 11.739 22.1873 11.7382C22.1873 11.7374 22.1874 11.7366 22.1874 11.7358C22.1875 11.735 22.1875 11.7342 22.1876 11.7334C22.1876 11.7326 22.1877 11.7319 22.1877 11.7311C22.1877 11.7303 22.1878 11.7295 22.1878 11.7287C22.1879 11.7279 22.1879 11.7271 22.188 11.7263C22.188 11.7255 22.1881 11.7247 22.1881 11.7239C22.1882 11.7231 22.1882 11.7223 22.1883 11.7215C22.1883 11.7207 22.1883 11.72 22.1884 11.7192C22.1884 11.7184 22.1885 11.7176 22.1885 11.7168C22.1886 11.716 22.1886 11.7152 22.1887 11.7144C22.1887 11.7136 22.1888 11.7128 22.1888 11.712C22.1888 11.7112 22.1889 11.7104 22.1889 11.7096C22.189 11.7088 22.189 11.708 22.1891 11.7073C22.1891 11.7065 22.1892 11.7057 22.1892 11.7049C22.1893 11.7041 22.1893 11.7033 22.1893 11.7025C22.1894 11.7017 22.1894 11.7009 22.1895 11.7001C22.1895 11.6993 22.1896 11.6985 22.1896 11.6977C22.1897 11.6969 22.1897 11.6961 22.1898 11.6954C22.1898 11.6946 22.1899 11.6938 22.1899 11.693C22.1899 11.6922 22.19 11.6914 22.19 11.6906C22.1901 11.6898 22.1901 11.689 22.1902 11.6882C22.1902 11.6874 22.1903 11.6866 22.1903 11.6858C22.1904 11.685 22.1904 11.6842 22.1904 11.6835C22.1905 11.6827 22.1905 11.6819 22.1906 11.6811C22.1906 11.6803 22.1907 11.6795 22.1907 11.6787C22.1908 11.6779 22.1908 11.6771 22.1909 11.6763C22.1909 11.6755 22.191 11.6747 22.191 11.6739C22.191 11.6731 22.1911 11.6723 22.1911 11.6715C22.1912 11.6708 22.1912 11.67 22.1913 11.6692C22.1913 11.6684 22.1914 11.6676 22.1914 11.6668C22.1915 11.666 22.1915 11.6652 22.1915 11.6644C22.1916 11.6636 22.1916 11.6628 22.1917 11.662C22.1917 11.6612 22.1918 11.6604 22.1918 11.6596C22.1919 11.6589 22.1919 11.6581 22.192 11.6573C22.192 11.6565 22.1921 11.6557 22.1921 11.6549C22.1921 11.6541 22.1922 11.6533 22.1922 11.6525C22.1923 11.6517 22.1923 11.6509 22.1924 11.6501C22.1924 11.6493 22.1925 11.6485 22.1925 11.6477C22.1926 11.647 22.1926 11.6462 22.1926 11.6454C22.1927 11.6446 22.1927 11.6438 22.1928 11.643C22.1928 11.6422 22.1929 11.6414 22.1929 11.6406C22.193 11.6398 22.193 11.639 22.1931 11.6382C22.1931 11.6374 22.1931 11.6366 22.1932 11.6358C22.1932 11.6351 22.1933 11.6343 22.1933 11.6335C22.1934 11.6327 22.1934 11.6319 22.1935 11.6311C22.1935 11.6303 22.1936 11.6295 22.1936 11.6287C22.1937 11.6279 22.1937 11.6271 22.1937 11.6263C22.1938 11.6255 22.1938 11.6247 22.1939 11.6239C22.1939 11.6231 22.194 11.6224 22.194 11.6216C22.1941 11.6208 22.1941 11.62 22.1942 11.6192C22.1942 11.6184 22.1942 11.6176 22.1943 11.6168C22.1943 11.616 22.1944 11.6152 22.1944 11.6144C22.1945 11.6136 22.1945 11.6128 22.1946 11.612C22.1946 11.6112 22.1947 11.6105 22.1947 11.6097C22.1948 11.6089 22.1948 11.6081 22.1948 11.6073C22.1949 11.6065 22.1949 11.6057 22.195 11.6049C22.195 11.6041 22.1951 11.6033 22.1951 11.6025C22.1952 11.6017 22.1952 11.6009 22.1953 11.6001C22.1953 11.5993 22.1953 11.5986 22.1954 11.5978C22.1954 11.597 22.1955 11.5962 22.1955 11.5954C22.1956 11.5946 22.1956 11.5938 22.1957 11.593C22.1957 11.5922 22.1958 11.5914 22.1958 11.5906C22.1958 11.5898 22.1959 11.589 22.1959 11.5882C22.196 11.5874 22.196 11.5866 22.1961 11.5859C22.1961 11.5851 22.1962 11.5843 22.1962 11.5835C22.1963 11.5827 22.1963 11.5819 22.1964 11.5811C22.1964 11.5803 22.1964 11.5795 22.1965 11.5787C22.1965 11.5779 22.1966 11.5771 22.1966 11.5763C22.1967 11.5755 22.1967 11.5747 22.1968 11.574C22.1968 11.5732 22.1969 11.5724 22.1969 11.5716C22.1969 11.5708 22.197 11.57 22.197 11.5692C22.1971 11.5684 22.1971 11.5676 22.1972 11.5668C22.1972 11.566 22.1973 11.5652 22.1973 11.5644C22.1974 11.5636 22.1974 11.5628 22.1975 11.5621C22.1975 11.5613 22.1975 11.5605 22.1976 11.5597C22.1976 11.5589 22.1977 11.5581 22.1977 11.5573C22.1978 11.5565 22.1978 11.5557 22.1979 11.5549C22.1979 11.5541 22.198 11.5533 22.198 11.5525C22.198 11.5517 22.1981 11.5509 22.1981 11.5502C22.1982 11.5494 22.1982 11.5486 22.1983 11.5478C22.1983 11.547 22.1984 11.5462 22.1984 11.5454C22.1985 11.5446 22.1985 11.5438 22.1986 11.543C22.1986 11.5422 22.1986 11.5414 22.1987 11.5406C22.1987 11.5398 22.1988 11.539 22.1988 11.5382C22.1989 11.5375 22.1989 11.5367 22.199 11.5359C22.199 11.5351 22.1991 11.5343 22.1991 11.5335C22.1991 11.5327 22.1992 11.5319 22.1992 11.5311C22.1993 11.5303 22.1993 11.5295 22.1994 11.5287C22.1994 11.5279 22.1995 11.5271 22.1995 11.5263C22.1996 11.5256 22.1996 11.5248 22.1996 11.524C22.1997 11.5232 22.1997 11.5224 22.1998 11.5216C22.1998 11.5208 22.1999 11.52 22.1999 11.5192C22.2 11.5184 22.2 11.5176 22.2001 11.5168C22.2001 11.516 22.2002 11.5152 22.2002 11.5144C22.2002 11.5137 22.2003 11.5129 22.2003 11.5121C22.2004 11.5113 22.2004 11.5105 22.2005 11.5097C22.2005 11.5089 22.2006 11.5081 22.2006 11.5073C22.2007 11.5065 22.2007 11.5057 22.2007 11.5049C22.2008 11.5041 22.2008 11.5033 22.2009 11.5025C22.2009 11.5017 22.201 11.501 22.201 11.5002C22.2011 11.4994 22.2011 11.4986 22.2012 11.4978C22.2012 11.497 22.2013 11.4962 22.2013 11.4954C22.2013 11.4946 22.2014 11.4938 22.2014 11.493C22.2015 11.4922 22.2015 11.4914 22.2016 11.4906C22.2016 11.4898 22.2017 11.4891 22.2017 11.4883C22.2018 11.4875 22.2018 11.4867 22.2018 11.4859C22.2019 11.4851 22.2019 11.4843 22.202 11.4835C22.202 11.4827 22.2021 11.4819 22.2021 11.4811C22.2022 11.4803 22.2022 11.4795 22.2023 11.4787C22.2023 11.4779 22.2023 11.4772 22.2024 11.4764C22.2024 11.4756 22.2025 11.4748 22.2025 11.474C22.2026 11.4732 22.2026 11.4724 22.2027 11.4716C22.2027 11.4708 22.2028 11.47 22.2028 11.4692C22.2029 11.4684 22.2029 11.4676 22.2029 11.4668C22.203 11.466 22.203 11.4653 22.2031 11.4645C22.2031 11.4637 22.2032 11.4629 22.2032 11.4621C22.2033 11.4613 22.2033 11.4605 22.2034 11.4597C22.2034 11.4589 22.2034 11.4581 22.2035 11.4573C22.2035 11.4565 22.2036 11.4557 22.2036 11.4549C22.2037 11.4541 22.2037 11.4533 22.2038 11.4526C22.2038 11.4518 22.2039 11.451 22.2039 11.4502C22.204 11.4494 22.204 11.4486 22.204 11.4478C22.2041 11.447 22.2041 11.4462 22.2042 11.4454C22.2042 11.4446 22.2043 11.4438 22.2043 11.443C22.2044 11.4422 22.2044 11.4414 22.2045 11.4407C22.2045 11.4399 22.2045 11.4391 22.2046 11.4383C22.2046 11.4375 22.2047 11.4367 22.2047 11.4359C22.2048 11.4351 22.2048 11.4343 22.2049 11.4335C22.2049 11.4327 22.205 11.4319 22.205 11.4311C22.2051 11.4303 22.2051 11.4295 22.2051 11.4288C22.2052 11.428 22.2052 11.4272 22.2053 11.4264C22.2053 11.4256 22.2054 11.4248 22.2054 11.424C22.2055 11.4232 22.2055 11.4224 22.2056 11.4216C22.2056 11.4208 22.2056 11.42 22.2057 11.4192C22.2057 11.4184 22.2058 11.4176 22.2058 11.4168C22.2059 11.4161 22.2059 11.4153 22.206 11.4145C22.206 11.4137 22.2061 11.4129 22.2061 11.4121C22.2061 11.4113 22.2062 11.4105 22.2062 11.4097C22.2063 11.4089 22.2063 11.4081 22.2064 11.4073C22.2064 11.4065 22.2065 11.4057 22.2065 11.4049C22.2066 11.4042 22.2066 11.4034 22.2067 11.4026C22.2067 11.4018 22.2067 11.401 22.2068 11.4002C22.2068 11.3994 22.2069 11.3986 22.2069 11.3978C22.207 11.397 22.207 11.3962 22.2071 11.3954C22.2071 11.3946 22.2072 11.3938 22.2072 11.393C22.2072 11.3923 22.2073 11.3915 22.2073 11.3907C22.2074 11.3899 22.2074 11.3891 22.2075 11.3883C22.2075 11.3875 22.2076 11.3867 22.2076 11.3859C22.2077 11.3851 22.2077 11.3843 22.2078 11.3835C22.2078 11.3827 22.2078 11.3819 22.2079 11.3811C22.2079 11.3804 22.208 11.3796 22.208 11.3788C22.2081 11.378 22.2081 11.3772 22.2082 11.3764C22.2082 11.3756 22.2083 11.3748 22.2083 11.374C22.2083 11.3732 22.2084 11.3724 22.2084 11.3716C22.2085 11.3708 22.2085 11.37 22.2086 11.3692C22.2086 11.3684 22.2087 11.3677 22.2087 11.3669C22.2088 11.3661 22.2088 11.3653 22.2089 11.3645C22.2089 11.3637 22.2089 11.3629 22.209 11.3621C22.209 11.3613 22.2091 11.3605 22.2091 11.3597C22.2092 11.3589 22.2092 11.3581 22.2093 11.3573C22.2093 11.3565 22.2094 11.3558 22.2094 11.355C22.2094 11.3542 22.2095 11.3534 22.2095 11.3526C22.2096 11.3518 22.2096 11.351 22.2097 11.3502C22.2097 11.3494 22.2098 11.3486 22.2098 11.3478C22.2099 11.347 22.2099 11.3462 22.2099 11.3454C22.21 11.3446 22.21 11.3439 22.2101 11.3431C22.2101 11.3423 22.2102 11.3415 22.2102 11.3407C22.2103 11.3399 22.2103 11.3391 22.2104 11.3383C22.2104 11.3375 22.2105 11.3367 22.2105 11.3359C22.2105 11.3351 22.2106 11.3343 22.2106 11.3335C22.2107 11.3327 22.2107 11.3319 22.2108 11.3312C22.2108 11.3304 22.2109 11.3296 22.2109 11.3288C22.211 11.328 22.211 11.3272 22.211 11.3264C22.2111 11.3256 22.2111 11.3248 22.2112 11.324C22.2112 11.3232 22.2113 11.3224 22.2113 11.3216C22.2114 11.3208 22.2114 11.32 22.2115 11.3193C22.2115 11.3185 22.2116 11.3177 22.2116 11.3169C22.2116 11.3161 22.2117 11.3153 22.2117 11.3145C22.2118 11.3137 22.2118 11.3129 22.2119 11.3121C22.2119 11.3113 22.212 11.3105 22.212 11.3097C22.2121 11.3089 22.2121 11.3081 22.2121 11.3074C22.2122 11.3066 22.2122 11.3058 22.2123 11.305C22.2123 11.3042 22.2124 11.3034 22.2124 11.3026C22.2125 11.3018 22.2125 11.301 22.2126 11.3002C22.2126 11.2994 22.2126 11.2986 22.2127 11.2978C22.2127 11.297 22.2128 11.2962 22.2128 11.2955C22.2129 11.2947 22.2129 11.2939 22.213 11.2931C22.213 11.2923 22.2131 11.2915 22.2131 11.2907C22.2132 11.2899 22.2132 11.2891 22.2132 11.2883C22.2133 11.2875 22.2133 11.2867 22.2134 11.2859C22.2134 11.2851 22.2135 11.2843 22.2135 11.2835C22.2136 11.2828 22.2136 11.282 22.2137 11.2812C22.2137 11.2804 22.2137 11.2796 22.2138 11.2788C22.2138 11.278 22.2139 11.2772 22.2139 11.2764C22.214 11.2756 22.214 11.2748 22.2141 11.274C22.2141 11.2732 22.2142 11.2724 22.2142 11.2716C22.2143 11.2709 22.2143 11.2701 22.2143 11.2693C22.2144 11.2685 22.2144 11.2677 22.2145 11.2669C22.2145 11.2661 22.2146 11.2653 22.2146 11.2645C22.2147 11.2637 22.2147 11.2629 22.2148 11.2621C22.2148 11.2613 22.2148 11.2605 22.2149 11.2597C22.2149 11.259 22.215 11.2582 22.215 11.2574C22.2151 11.2566 22.2151 11.2558 22.2152 11.255C22.2152 11.2542 22.2153 11.2534 22.2153 11.2526C22.2154 11.2518 22.2154 11.251 22.2154 11.2502C22.2155 11.2494 22.2155 11.2486 22.2156 11.2478C22.2156 11.247 22.2157 11.2463 22.2157 11.2455C22.2158 11.2447 22.2158 11.2439 22.2159 11.2431C22.2159 11.2423 22.2159 11.2415 22.216 11.2407C22.216 11.2399 22.2161 11.2391 22.2161 11.2383C22.2162 11.2375 22.2162 11.2367 22.2163 11.2359C22.2163 11.2351 22.2164 11.2344 22.2164 11.2336C22.2164 11.2328 22.2165 11.232 22.2165 11.2312C22.2166 11.2304 22.2166 11.2296 22.2167 11.2288C22.2167 11.228 22.2168 11.2272 22.2168 11.2264C22.2169 11.2256 22.2169 11.2248 22.217 11.224C22.217 11.2232 22.217 11.2225 22.2171 11.2217C22.2171 11.2209 22.2172 11.2201 22.2172 11.2193C22.2173 11.2185 22.2173 11.2177 22.2174 11.2169C22.2174 11.2161 22.2175 11.2153 22.2175 11.2145C22.2175 11.2137 22.2176 11.2129 22.2176 11.2121C22.2177 11.2113 22.2177 11.2106 22.2178 11.2098C22.2178 11.209 22.2179 11.2082 22.2179 11.2074C22.218 11.2066 22.218 11.2058 22.2181 11.205C22.2181 11.2042 22.2181 11.2034 22.2182 11.2026C22.2182 11.2018 22.2183 11.201 22.2183 11.2002C22.2184 11.1994 22.2184 11.1986 22.2185 11.1979C22.2185 11.1971 22.2186 11.1963 22.2186 11.1955C22.2186 11.1947 22.2187 11.1939 22.2187 11.1931C22.2188 11.1923 22.2188 11.1915 22.2189 11.1907C22.2189 11.1899 22.219 11.1891 22.219 11.1883C22.2191 11.1875 22.2191 11.1867 22.2191 11.186C22.2192 11.1852 22.2192 11.1844 22.2193 11.1836C22.2193 11.1828 22.2194 11.182 22.2194 11.1812C22.2195 11.1804 22.2195 11.1796 22.2196 11.1788C22.2196 11.178 22.2197 11.1772 22.2197 11.1764C22.2197 11.1756 22.2198 11.1748 22.2198 11.1741C22.2199 11.1733 22.2199 11.1725 22.22 11.1717C22.22 11.1709 22.2201 11.1701 22.2201 11.1693C22.2202 11.1685 22.2202 11.1677 22.2202 11.1669C22.2203 11.1661 22.2203 11.1653 22.2204 11.1645C22.2204 11.1637 22.2205 11.1629 22.2205 11.1621C22.2206 11.1614 22.2206 11.1606 22.2207 11.1598C22.2207 11.159 22.2208 11.1582 22.2208 11.1574C22.2208 11.1566 22.2209 11.1558 22.2209 11.155C22.221 11.1542 22.221 11.1534 22.2211 11.1526C22.2211 11.1518 22.2212 11.151 22.2212 11.1502C22.2213 11.1495 22.2213 11.1487 22.2213 11.1479C22.2214 11.1471 22.2214 11.1463 22.2215 11.1455C22.2215 11.1447 22.2216 11.1439 22.2216 11.1431C22.2217 11.1423 22.2217 11.1415 22.2218 11.1407C22.2218 11.1399 22.2219 11.1391 22.2219 11.1383C22.2219 11.1376 22.222 11.1368 22.222 11.136C22.2221 11.1352 22.2221 11.1344 22.2222 11.1336C22.2222 11.1328 22.2223 11.132 22.2223 11.1312C22.2224 11.1304 22.2224 11.1296 22.2224 11.1288C22.2225 11.128 22.2225 11.1272 22.2226 11.1264C22.2226 11.1257 22.2227 11.1249 22.2227 11.1241C22.2228 11.1233 22.2228 11.1225 22.2229 11.1217C22.2229 11.1209 22.2229 11.1201 22.223 11.1193C22.223 11.1185 22.2231 11.1177 22.2231 11.1169C22.2232 11.1161 22.2232 11.1153 22.2233 11.1145C22.2233 11.1137 22.2234 11.113 22.2234 11.1122C22.2235 11.1114 22.2235 11.1106 22.2235 11.1098C22.2236 11.109 22.2236 11.1082 22.2237 11.1074C22.2237 11.1066 22.2238 11.1058 22.2238 11.105C22.2239 11.1042 22.2239 11.1034 22.224 11.1026C22.224 11.1018 22.224 11.1011 22.2241 11.1003C22.2241 11.0995 22.2242 11.0987 22.2242 11.0979C22.2243 11.0971 22.2243 11.0963 22.2244 11.0955C22.2244 11.0947 22.2245 11.0939 22.2245 11.0931C22.2246 11.0923 22.2246 11.0915 22.2246 11.0907C22.2247 11.0899 22.2247 11.0892 22.2248 11.0884C22.2248 11.0876 22.2249 11.0868 22.2249 11.086C22.225 11.0852 22.225 11.0844 22.2251 11.0836C22.2251 11.0828 22.2251 11.082 22.2252 11.0812C22.2252 11.0804 22.2253 11.0796 22.2253 11.0788C22.2254 11.078 22.2254 11.0772 22.2255 11.0765C22.2255 11.0757 22.2256 11.0749 22.2256 11.0741C22.2257 11.0733 22.2257 11.0725 22.2257 11.0717C22.2258 11.0709 22.2258 11.0701 22.2259 11.0693C22.2259 11.0685 22.226 11.0677 22.226 11.0669C22.2261 11.0661 22.2261 11.0653 22.2262 11.0646C22.2262 11.0638 22.2262 11.063 22.2263 11.0622C22.2263 11.0614 22.2264 11.0606 22.2264 11.0598C22.2265 11.059 22.2265 11.0582 22.2266 11.0574C22.2266 11.0566 22.2267 11.0558 22.2267 11.055C22.2267 11.0542 22.2268 11.0534 22.2268 11.0527C22.2269 11.0519 22.2269 11.0511 22.227 11.0503C22.227 11.0495 22.2271 11.0487 22.2271 11.0479C22.2272 11.0471 22.2272 11.0463 22.2273 11.0455C22.2273 11.0447 22.2273 11.0439 22.2274 11.0431C22.2274 11.0423 22.2275 11.0415 22.2275 11.0408C22.2276 11.04 22.2276 11.0392 22.2277 11.0384C22.2277 11.0376 22.2278 11.0368 22.2278 11.036C22.2278 11.0352 22.2279 11.0344 22.2279 11.0336C22.228 11.0328 22.228 11.032 22.2281 11.0312C22.2281 11.0304 22.2282 11.0296 22.2282 11.0288C22.2283 11.0281 22.2283 11.0273 22.2284 11.0265C22.2284 11.0257 22.2284 11.0249 22.2285 11.0241C22.2285 11.0233 22.2286 11.0225 22.2286 11.0217C22.2287 11.0209 22.2287 11.0201 22.2288 11.0193C22.2288 11.0185 22.2289 11.0177 22.2289 11.0169C22.2289 11.0162 22.229 11.0154 22.229 11.0146C22.2291 11.0138 22.2291 11.013 22.2292 11.0122C22.2292 11.0114 22.2293 11.0106 22.2293 11.0098C22.2294 11.009 22.2294 11.0082 22.2294 11.0074C22.2295 11.0066 22.2295 11.0058 22.2296 11.005C22.2296 11.0043 22.2297 11.0035 22.2297 11.0027C22.2298 11.0019 22.2298 11.0011 22.2299 11.0003C22.2299 10.9995 22.23 10.9987 22.23 10.9979C22.23 10.9971 22.2301 10.9963 22.2301 10.9955C22.2302 10.9947 22.2302 10.9939 22.2303 10.9931C22.2303 10.9923 22.2304 10.9916 22.2304 10.9908C22.2305 10.99 22.2305 10.9892 22.2305 10.9884C22.2306 10.9876 22.2306 10.9868 22.2307 10.986C22.2307 10.9852 22.2308 10.9844 22.2308 10.9836C22.2309 10.9828 22.2309 10.982 22.231 10.9812C22.231 10.9804 22.2311 10.9797 22.2311 10.9789C22.2311 10.9781 22.2312 10.9773 22.2312 10.9765C22.2313 10.9757 22.2313 10.9749 22.2314 10.9741C22.2314 10.9733 22.2315 10.9725 22.2315 10.9717C22.2316 10.9709 22.2316 10.9701 22.2316 10.9693C22.2317 10.9685 22.2317 10.9678 22.2318 10.967C22.2318 10.9662 22.2319 10.9654 22.2319 10.9646C22.232 10.9638 22.232 10.963 22.2321 10.9622C22.2321 10.9614 22.2322 10.9606 22.2322 10.9598C22.2322 10.959 22.2323 10.9582 22.2323 10.9574C22.2324 10.9566 22.2324 10.9559 22.2325 10.9551C22.2325 10.9543 22.2326 10.9535 22.2326 10.9527C22.2327 10.9519 22.2327 10.9511 22.2327 10.9503C22.2328 10.9495 22.2328 10.9487 22.2329 10.9479C22.2329 10.9471 22.233 10.9463 22.233 10.9455C22.2331 10.9447 22.2331 10.9439 22.2332 10.9432C22.2332 10.9424 22.2332 10.9416 22.2333 10.9408C22.2333 10.94 22.2334 10.9392 22.2334 10.9384C22.2335 10.9376 22.2335 10.9368 22.2336 10.936C22.2336 10.9352 22.2337 10.9344 22.2337 10.9336C22.2338 10.9328 22.2338 10.932 22.2338 10.9313C22.2339 10.9305 22.2339 10.9297 22.234 10.9289C22.234 10.9281 22.2341 10.9273 22.2341 10.9265C22.2342 10.9257 22.2342 10.9249 22.2343 10.9241C22.2343 10.9233 22.2343 10.9225 22.2344 10.9217C22.2344 10.9209 22.2345 10.9201 22.2345 10.9194C22.2346 10.9186 22.2346 10.9178 22.2347 10.917C22.2347 10.9162 22.2348 10.9154 22.2348 10.9146C22.2349 10.9138 22.2349 10.913 22.2349 10.9122C22.235 10.9114 22.235 10.9106 22.2351 10.9098C22.2351 10.909 22.2352 10.9082 22.2352 10.9075C22.2353 10.9067 22.2353 10.9059 22.2354 10.9051C22.2354 10.9043 22.2354 10.9035 22.2355 10.9027C22.2355 10.9019 22.2356 10.9011 22.2356 10.9003C22.2357 10.8995 22.2357 10.8987 22.2358 10.8979C22.2358 10.8971 22.2359 10.8963 22.2359 10.8955C22.2359 10.8948 22.236 10.894 22.236 10.8932C22.2361 10.8924 22.2361 10.8916 22.2362 10.8908C22.2362 10.89 22.2363 10.8892 22.2363 10.8884C22.2364 10.8876 22.2364 10.8868 22.2365 10.886C22.2365 10.8852 22.2365 10.8844 22.2366 10.8836C22.2366 10.8829 22.2367 10.8821 22.2367 10.8813C22.2368 10.8805 22.2368 10.8797 22.2369 10.8789C22.2369 10.8781 22.237 10.8773 22.237 10.8765C22.237 10.8757 22.2371 10.8749 22.2371 10.8741C22.2372 10.8733 22.2372 10.8725 22.2373 10.8717C22.2373 10.871 22.2374 10.8702 22.2374 10.8694C22.2375 10.8686 22.2375 10.8678 22.2376 10.867C22.2376 10.8662 22.2376 10.8654 22.2377 10.8646C22.2377 10.8638 22.2378 10.863 22.2378 10.8622C22.2379 10.8614 22.2379 10.8606 22.238 10.8598C22.238 10.859 22.2381 10.8583 22.2381 10.8575C22.2381 10.8567 22.2382 10.8559 22.2382 10.8551C22.2383 10.8543 22.2383 10.8535 22.2384 10.8527C22.2384 10.8519 22.2385 10.8511 22.2385 10.8503C22.2386 10.8495 22.2386 10.8487 22.2387 10.8479C22.2387 10.8471 22.2387 10.8464 22.2388 10.8456C22.2388 10.8448 22.2389 10.844 22.2389 10.8432C22.239 10.8424 22.239 10.8416 22.2391 10.8408C22.2391 10.84 22.2392 10.8392 22.2392 10.8384C22.2392 10.8376 22.2393 10.8368 22.2393 10.836C22.2394 10.8352 22.2394 10.8345 22.2395 10.8337C22.2395 10.8329 22.2396 10.8321 22.2396 10.8313C22.2397 10.8305 22.2397 10.8297 22.2397 10.8289C22.2398 10.8281 22.2398 10.8273 22.2399 10.8265C22.2399 10.8257 22.24 10.8249 22.24 10.8241C22.2401 10.8233 22.2401 10.8226 22.2402 10.8218C22.2402 10.821 22.2403 10.8202 22.2403 10.8194C22.2403 10.8186 22.2404 10.8178 22.2404 10.817C22.2405 10.8162 22.2405 10.8154 22.2406 10.8146C22.2406 10.8138 22.2407 10.813 22.2407 10.8122C22.2408 10.8114 22.2408 10.8106 22.2408 10.8099C22.2409 10.8091 22.2409 10.8083 22.241 10.8075C22.241 10.8067 22.2411 10.8059 22.2411 10.8051C22.2412 10.8043 22.2412 10.8035 22.2413 10.8027C22.2413 10.8019 22.2414 10.8011 22.2414 10.8003C22.2414 10.7995 22.2415 10.7987 22.2415 10.798C22.2416 10.7972 22.2416 10.7964 22.2417 10.7956C22.2417 10.7948 22.2418 10.794 22.2418 10.7932C22.2419 10.7924 22.2419 10.7916 22.2419 10.7908C22.242 10.79 22.242 10.7892 22.2421 10.7884C22.2421 10.7876 22.2422 10.7868 22.2422 10.7861C22.2423 10.7853 22.2423 10.7845 22.2424 10.7837C22.2424 10.7829 22.2425 10.7821 22.2425 10.7813C22.2425 10.7805 22.2426 10.7797 22.2426 10.7789C22.2427 10.7781 22.2427 10.7773 22.2428 10.7765C22.2428 10.7757 22.2429 10.7749 22.2429 10.7741C22.243 10.7734 22.243 10.7726 22.243 10.7718C22.2431 10.771 22.2431 10.7702 22.2432 10.7694C22.2432 10.7686 22.2433 10.7678 22.2433 10.767C22.2434 10.7662 22.2434 10.7654 22.2435 10.7646C22.2435 10.7638 22.2435 10.763 22.2436 10.7622C22.2436 10.7615 22.2437 10.7607 22.2437 10.7599C22.2438 10.7591 22.2438 10.7583 22.2439 10.7575C22.2439 10.7567 22.244 10.7559 22.244 10.7551C22.2441 10.7543 22.2441 10.7535 22.2441 10.7527C22.2442 10.7519 22.2442 10.7511 22.2443 10.7503C22.2443 10.7496 22.2444 10.7488 22.2444 10.748C22.2445 10.7472 22.2445 10.7464 22.2446 10.7456C22.2446 10.7448 22.2446 10.744 22.2447 10.7432C22.2447 10.7424 22.2448 10.7416 22.2448 10.7408C22.2449 10.74 22.2449 10.7392 22.245 10.7384C22.245 10.7377 22.2451 10.7369 22.2451 10.7361C22.2452 10.7353 22.2452 10.7345 22.2452 10.7337C22.2453 10.7329 22.2453 10.7321 22.2454 10.7313C22.2454 10.7305 22.2455 10.7297 22.2455 10.7289C22.2456 10.7281 22.2456 10.7273 22.2457 10.7265C22.2457 10.7257 22.2457 10.725 22.2458 10.7242C22.2458 10.7234 22.2459 10.7226 22.2459 10.7218C22.246 10.721 22.246 10.7202 22.2461 10.7194C22.2461 10.7186 22.2462 10.7178 22.2462 10.717C22.2462 10.7162 22.2463 10.7154 22.2463 10.7146C22.2464 10.7138 22.2464 10.7131 22.2465 10.7123C22.2465 10.7115 22.2466 10.7107 22.2466 10.7099C22.2467 10.7091 22.2467 10.7083 22.2468 10.7075C22.2468 10.7067 22.2468 10.7059 22.2469 10.7051C22.2469 10.7043 22.247 10.7035 22.247 10.7027C22.2471 10.7019 22.2471 10.7012 22.2472 10.7004C22.2472 10.6996 22.2473 10.6988 22.2473 10.698C22.2473 10.6972 22.2474 10.6964 22.2474 10.6956C22.2475 10.6948 22.2475 10.694 22.2476 10.6932C22.2476 10.6924 22.2477 10.6916 22.2477 10.6908C22.2478 10.69 22.2478 10.6892 22.2479 10.6885C22.2479 10.6877 22.2479 10.6869 22.248 10.6861C22.248 10.6853 22.2481 10.6845 22.2481 10.6837C22.2482 10.6829 22.2482 10.6821 22.2483 10.6813C22.2483 10.6805 22.2484 10.6797 22.2484 10.6789C22.2484 10.6781 22.2485 10.6773 22.2485 10.6766C22.2486 10.6758 22.2486 10.675 22.2487 10.6742C22.2487 10.6734 22.2488 10.6726 22.2488 10.6718C22.2489 10.671 22.2489 10.6702 22.249 10.6694C22.249 10.6686 22.249 10.6678 22.2491 10.667C22.2491 10.6662 22.2492 10.6654 22.2492 10.6647C22.2493 10.6639 22.2493 10.6631 22.2494 10.6623C22.2494 10.6615 22.2495 10.6607 22.2495 10.6599C22.2495 10.6591 22.2496 10.6583 22.2496 10.6575C22.2497 10.6567 22.2497 10.6559 22.2498 10.6551C22.2498 10.6543 22.2499 10.6535 22.2499 10.6528C22.25 10.652 22.25 10.6512 22.25 10.6504C22.2501 10.6496 22.2501 10.6488 22.2502 10.648C22.2502 10.6472 22.2503 10.6464 22.2503 10.6456C22.2504 10.6448 22.2504 10.644 22.2505 10.6432C22.2505 10.6424 22.2506 10.6416 22.2506 10.6408C22.2506 10.6401 22.2507 10.6393 22.2507 10.6385C22.2508 10.6377 22.2508 10.6369 22.2509 10.6361C22.2509 10.6353 22.251 10.6345 22.251 10.6337C22.2511 10.6329 22.2511 10.6321 22.2511 10.6313C22.2512 10.6305 22.2512 10.6297 22.2513 10.6289C22.2513 10.6282 22.2514 10.6274 22.2514 10.6266C22.2515 10.6258 22.2515 10.625 22.2516 10.6242C22.2516 10.6234 22.2517 10.6226 22.2517 10.6218C22.2517 10.621 22.2518 10.6202 22.2518 10.6194C22.2519 10.6186 22.2519 10.6178 22.252 10.617C22.252 10.6163 22.2521 10.6155 22.2521 10.6147C22.2522 10.6139 22.2522 10.6131 22.2522 10.6123L20.2556 10.4971ZM20.1843 11.735C20.1687 12.1405 20.1531 12.5343 20.1376 12.9162L22.1359 12.9978C22.1515 12.6142 22.1672 12.2189 22.1829 11.8119L20.1843 11.735ZM20.1369 12.9366C20.129 13.3252 20.125 13.6875 20.125 14.0234H22.125C22.125 13.7031 22.1288 13.3545 22.1365 12.9774L20.1369 12.9366ZM20.125 14.0234C20.125 14.543 20.1369 14.9809 20.163 15.3287L22.1574 15.1791C22.1366 14.9019 22.125 14.5195 22.125 14.0234H20.125ZM20.163 15.3287C20.1916 15.7103 20.268 16.1071 20.4494 16.4548L22.2225 15.5296C22.2226 15.5297 22.2217 15.5281 22.2202 15.5245C22.2186 15.5209 22.2164 15.5155 22.2138 15.5081C22.2084 15.4931 22.2016 15.4712 22.1945 15.4412C22.18 15.3802 22.166 15.2945 22.1574 15.1791L20.163 15.3287ZM20.4494 16.4548C20.6596 16.8578 21.0013 17.1574 21.4416 17.3042L22.074 15.4068C22.0956 15.414 22.1297 15.4302 22.1642 15.46C22.1984 15.4895 22.2162 15.5175 22.2225 15.5296L20.4494 16.4548ZM21.453 17.3079C21.7895 17.4156 22.1724 17.4492 22.5547 17.4492V15.4492C22.2651 15.4492 22.1167 15.4204 22.0626 15.403L21.453 17.3079ZM22.5547 17.4492H23.1641V15.4492H22.5547V17.4492ZM22.1641 16.4492V17H24.1641V16.4492H22.1641ZM23.1641 16H22.9414V18H23.1641V16ZM22.9414 16C22.1829 16 21.4807 16.0282 20.8364 16.086L21.0152 18.078C21.5896 18.0265 22.2312 18 22.9414 18V16ZM20.8352 16.0861C20.1802 16.1457 19.543 16.2566 18.9245 16.4198L19.4348 18.3536C19.9414 18.22 20.4682 18.1278 21.0163 18.0779L20.8352 16.0861ZM20.1675 17.5423C20.3511 16.3769 20.4945 15.1812 20.598 13.9552L18.6051 13.787C18.5055 14.9673 18.3677 16.1152 18.1919 17.2311L20.1675 17.5423ZM20.5981 13.9547C20.7021 12.7148 20.7539 11.4486 20.7539 10.1562H18.7539C18.7539 11.3951 18.7042 12.6055 18.6051 13.7875L20.5981 13.9547ZM20.7539 10.1562C20.7539 9.81732 20.7365 9.48158 20.7015 9.14922L18.7125 9.35859C18.74 9.61998 18.7539 9.88581 18.7539 10.1562H20.7539ZM20.7039 9.1752C20.671 8.75776 20.5633 8.35431 20.36 7.98567L18.6088 8.95183C18.6554 9.03631 18.6962 9.1563 18.7101 9.33261L20.7039 9.1752ZM20.3667 7.99816C20.1403 7.57358 19.7994 7.25221 19.389 7.02835L18.4313 8.78415C18.5365 8.84154 18.5785 8.89517 18.602 8.93934L20.3667 7.99816ZM19.4091 7.03963C18.9382 6.76846 18.3802 6.68359 17.832 6.68359V8.68359C18.2058 8.68359 18.3665 8.74716 18.4112 8.77287L19.4091 7.03963ZM17.832 6.68359H17.6211V8.68359H17.832V6.68359ZM18.6211 7.68359V7.10938H16.6211V7.68359H18.6211ZM17.6655 8.10839C18.0196 8.09265 18.3432 8.07687 18.636 8.06104L18.5281 6.06396C18.2428 6.07938 17.9257 6.09485 17.5767 6.11036L17.6655 8.10839ZM18.6607 8.0594C18.9757 8.03453 19.2871 8.00134 19.5949 7.95974L19.327 5.97776C19.0567 6.01429 18.7821 6.04359 18.5033 6.0656L18.6607 8.0594ZM19.6169 7.95651C19.935 7.90628 20.2632 7.8439 20.6011 7.76971L20.1723 5.81622C19.8696 5.88266 19.5806 5.93747 19.305 5.98099L19.6169 7.95651ZM20.6237 7.76449C20.9677 7.68057 21.3506 7.57331 21.7706 7.44406L21.1825 5.5325C20.79 5.65325 20.4463 5.74911 20.1498 5.82145L20.6237 7.76449ZM20.496 6.29217C20.4254 6.64511 20.3509 7.02135 20.2726 7.42087L22.2352 7.8057C22.3131 7.40833 22.3871 7.03458 22.4571 6.6844L20.496 6.29217ZM20.2697 7.43613C20.1966 7.84257 20.1387 8.2219 20.0969 8.57319L22.0828 8.80962C22.1191 8.50467 22.1706 8.16524 22.2381 7.79043L20.2697 7.43613ZM21.7675 9.42676C22.1521 9.07237 22.5046 8.76844 22.8256 8.51307L21.5806 6.94787C21.2141 7.23937 20.8245 7.57607 20.4122 7.95605L21.7675 9.42676ZM22.8171 8.51982C23.1342 8.27317 23.4295 8.07764 23.703 7.92788L22.7423 6.17368C22.3596 6.38329 21.9752 6.64089 21.5892 6.94112L22.8171 8.51982ZM23.71 7.92398C23.9839 7.7711 24.2468 7.66255 24.4993 7.5921L23.9617 5.66571C23.5422 5.78277 23.1333 5.95546 22.7353 6.17758L23.71 7.92398ZM24.4993 7.5921C24.7414 7.52454 25.0059 7.48828 25.2969 7.48828V5.48828C24.8378 5.48828 24.3914 5.54578 23.9617 5.66571L24.4993 7.5921ZM25.2969 7.48828C25.422 7.48828 25.574 7.5046 25.7563 7.54575L26.1968 5.59487C25.8947 5.52665 25.5936 5.48828 25.2969 5.48828V7.48828ZM25.7563 7.54575C25.8716 7.5718 25.9961 7.62261 26.1317 7.71146L27.2277 6.03854C26.9102 5.83051 26.5659 5.6782 26.1968 5.59487L25.7563 7.54575ZM26.1523 7.72464C26.2376 7.7776 26.3442 7.87241 26.4608 8.04468L28.1173 6.92407C27.8745 6.56509 27.5749 6.25365 27.2071 6.02536L26.1523 7.72464ZM26.4687 8.05617C26.5515 8.17496 26.6477 8.38163 26.723 8.72084L28.6754 8.28698C28.5633 7.78243 28.386 7.30942 28.1095 6.91258L26.4687 8.05617ZM28.3665 9.24874C28.7259 8.92679 29.0569 8.65135 29.3599 8.42043L28.1479 6.82957C27.7947 7.09865 27.4226 7.40915 27.032 7.75907L28.3665 9.24874ZM29.3717 8.41132C29.6604 8.18453 29.9298 8.00879 30.1797 7.87759L29.25 6.10679C28.8749 6.30371 28.5037 6.54984 28.1361 6.83868L29.3717 8.41132ZM30.1877 7.87335C30.441 7.7374 30.6825 7.64487 30.9127 7.58871L30.4388 5.64567C30.0285 5.74575 29.6293 5.90323 29.242 6.11103L30.1877 7.87335ZM30.9349 7.58303C31.1622 7.52204 31.4181 7.48828 31.707 7.48828V5.48828C31.2616 5.48828 30.83 5.54046 30.4167 5.65134L30.9349 7.58303ZM31.707 7.48828C31.8432 7.48828 32.0198 7.51051 32.243 7.57083L32.7648 5.64011C32.4099 5.54417 32.0552 5.48828 31.707 5.48828V7.48828ZM32.2676 7.57714C32.3739 7.60301 32.4977 7.66197 32.641 7.79177L33.984 6.30979C33.6273 5.98647 33.212 5.74855 32.7403 5.6338L32.2676 7.57714ZM32.641 7.79177C32.7518 7.89221 32.8887 8.07464 33.0217 8.3951L34.8689 7.62834C34.6582 7.12067 34.3732 6.66247 33.984 6.30979L32.641 7.79177ZM33.0243 8.40136C33.1241 8.63714 33.2031 9.0278 33.2031 9.62891H35.2031C35.2031 8.88626 35.1103 8.1988 34.8663 7.62208L33.0243 8.40136ZM33.2031 9.62891C33.2031 10.0368 33.1849 10.4664 33.1479 10.9183L35.1412 11.0817C35.1823 10.5804 35.2031 10.096 35.2031 9.62891H33.2031ZM33.1467 10.9346C33.1162 11.3999 33.078 11.8612 33.0323 12.3185L35.0224 12.5175C35.0704 12.0372 35.1104 11.5532 35.1424 11.0654L33.1467 10.9346ZM33.0309 12.3335C32.992 12.793 32.953 13.2408 32.9141 13.6767L34.9062 13.8546C34.9454 13.4155 34.9846 12.9648 35.0238 12.5024L33.0309 12.3335ZM32.9128 13.6931C32.8802 14.1418 32.8633 14.5571 32.8633 14.9375H34.8633C34.8633 14.6148 34.8777 14.2489 34.9075 13.8382L32.9128 13.6931ZM32.8633 14.9375C32.8633 15.2848 32.8892 15.6207 32.9612 15.9209L34.906 15.4541C34.8843 15.3637 34.8633 15.1995 34.8633 14.9375H32.8633ZM32.9706 15.9571C33.0573 16.2667 33.2049 16.5774 33.4486 16.8386L34.9107 15.4739C34.9357 15.5007 34.9193 15.4989 34.8966 15.4179L32.9706 15.9571ZM33.4974 16.8873C33.754 17.1268 34.0578 17.2761 34.3726 17.3582L34.8774 15.423C34.8538 15.4169 34.8444 15.4118 34.8447 15.412C34.8447 15.412 34.8468 15.4131 34.8501 15.4155C34.8535 15.4178 34.8576 15.4211 34.862 15.4252L33.4974 16.8873ZM34.4126 17.3678C34.6836 17.4267 34.9781 17.4492 35.2812 17.4492V15.4492C35.0687 15.4492 34.9257 15.4326 34.8374 15.4134L34.4126 17.3678ZM35.2812 17.4492H35.9258V15.4492H35.2812V17.4492ZM34.9258 16.4492V17H36.9258V16.4492H34.9258Z" fill="#283870"/>
</svg>
